<svg width="87" height="45" viewBox="0 0 87 45" fill="none" xmlns="http://www.w3.org/2000/svg">
<path d="M20.6104 21.2075V15.9802H18.6688V28.3763H19.3409H20.6104V21.2075Z" fill="#007AFF"/>
<path d="M28.0779 17.7727C27.1818 16.8019 26.0616 16.2792 24.7922 16.0552V17.9967C25.5389 18.1461 26.1363 18.5195 26.659 19.0422C27.4058 19.8636 27.7792 20.8344 27.7792 22.1039C27.7792 23.2987 27.4058 24.3441 26.659 25.1656C26.1363 25.763 25.5389 26.0617 24.7922 26.2857V28.2272C26.0616 28.0032 27.1818 27.4805 28.0779 26.5097C29.198 25.3149 29.7954 23.8214 29.7954 22.1039C29.7954 20.461 29.198 18.9675 28.0779 17.7727Z" fill="#007AFF"/>
<path d="M43.7597 18.9675H45.9253C44.3571 8.73701 35.8441 0.746753 25.3896 0V2.16558C34.6493 2.91234 42.1915 9.93181 43.7597 18.9675Z" fill="#14D999"/>
<path d="M25.3896 42.6395V44.8051C35.9935 43.9836 44.5812 35.7694 46 25.3148H43.8344C42.4902 34.6492 34.7987 41.8927 25.3896 42.6395Z" fill="#14D999"/>
<path d="M38.9058 18.9676H39.4286C38.0097 12.2468 32.3344 7.0942 25.3896 6.42212V8.5877C31.1396 9.25978 35.7695 13.5163 37.1883 18.9676H38.9058Z" fill="#14D999"/>
<path d="M37.263 25.3148C35.9935 31.0648 31.289 35.4707 25.3149 36.2174V38.383C32.4091 37.6362 38.0844 32.2596 39.4286 25.3148H37.263Z" fill="#14D999"/>
<path d="M2.16558 25.3147H0C1.34416 35.7692 9.93182 43.9835 20.6104 44.8049V42.6394C11.1266 41.8926 3.50974 34.6491 2.16558 25.3147Z" fill="#14D999"/>
<path d="M0.0746613 18.9674H2.24024C3.73375 9.93169 11.276 2.91221 20.6104 2.16546V-0.00012207C10.0812 0.746631 1.64284 8.73689 0.0746613 18.9674Z" fill="#14D999"/>
<path d="M6.64612 18.9674H8.8117C10.2305 13.4415 14.8604 9.25966 20.6104 8.58758V6.422C13.6656 7.16875 8.06495 12.3213 6.64612 18.9674Z" fill="#14D999"/>
<path d="M8.73698 25.3147H6.49672C7.7662 32.2595 13.5162 37.6361 20.6104 38.3829V36.2173C14.711 35.4705 9.93178 31.0647 8.73698 25.3147Z" fill="#14D999"/>
<path d="M56.996 17.6H60.812C61.724 17.6 62.528 17.776 63.224 18.128C63.928 18.472 64.472 18.96 64.856 19.592C65.248 20.224 65.444 20.96 65.444 21.8C65.444 22.64 65.248 23.376 64.856 24.008C64.472 24.64 63.928 25.132 63.224 25.484C62.528 25.828 61.724 26 60.812 26H56.996V17.6ZM60.716 24.404C61.556 24.404 62.224 24.172 62.72 23.708C63.224 23.236 63.476 22.6 63.476 21.8C63.476 21 63.224 20.368 62.72 19.904C62.224 19.432 61.556 19.196 60.716 19.196H58.94V24.404H60.716ZM73.3249 24.2H69.4249L68.6809 26H66.6889L70.4329 17.6H72.3529L76.1089 26H74.0689L73.3249 24.2ZM72.7129 22.724L71.3809 19.508L70.0489 22.724H72.7129ZM85.6844 17.6V26H84.0884L79.9004 20.9V26H77.9804V17.6H79.5884L83.7644 22.7V17.6H85.6844Z" fill="#007AFF"/>
</svg>
