<svg width="68" height="68" viewBox="0 0 68 68" fill="none" xmlns="http://www.w3.org/2000/svg">
<rect x="1" y="1" width="66" height="66" rx="2.38179" fill="#14D999" fill-opacity="0.1" stroke="#14D999" stroke-width="2"/>
<path d="M26.7956 23.7209C30.1629 22.2019 32.6516 20.2412 33.9926 18.0508C34.0131 18.0174 34.0424 18.0005 34.0798 18.0005C34.1172 18.0005 34.1465 18.0174 34.1669 18.0508C35.1578 19.6693 36.7484 21.1443 38.8947 22.4351C40.9944 23.6979 43.5199 24.7217 46.4007 25.478C46.4697 25.4961 46.519 25.5548 46.5238 25.6241C46.562 26.1861 46.5813 26.7774 46.5813 27.3815C46.5813 29.6216 45.9926 32.1345 44.8314 34.8505C44.7228 35.1046 44.8407 35.3985 45.0948 35.5072C45.2746 35.5784 45.5982 35.5513 45.7515 35.2438C46.9661 32.4028 47.5819 29.7575 47.5819 27.3815C47.5819 26.7549 47.5618 26.1408 47.522 25.5563C47.4882 25.0579 47.1397 24.6375 46.6548 24.5103C41.0815 23.047 36.8409 20.5022 35.0202 17.5284C34.8176 17.1975 34.4661 17 34.0797 17C33.6933 17 33.3418 17.1975 33.1392 17.5284C31.9034 19.5468 29.5676 21.3727 26.3841 22.8088C26.1323 22.9224 26.0202 23.2187 26.1338 23.4706C26.2474 23.7223 26.5438 23.8343 26.7956 23.7209Z" fill="url(#paint0_linear)"/>
<path d="M39.1819 37.3859V33.3477C39.1819 32.4415 38.4831 31.6958 37.596 31.6202V30.8535C37.596 28.9146 36.0187 27.3372 34.0797 27.3372C32.1407 27.3372 30.5634 28.9145 30.5634 30.8535V31.6202C29.6763 31.6958 28.9775 32.4415 28.9775 33.3478V37.386C28.9775 38.3423 29.7555 39.1203 30.7118 39.1203H37.4476C38.4039 39.1203 39.1819 38.3423 39.1819 37.3859ZM34.0798 28.3377C35.4669 28.3377 36.5955 29.4663 36.5955 30.8535V31.6135H31.564V30.8535C31.564 29.4663 32.6926 28.3377 34.0798 28.3377ZM29.9781 37.3859V33.3477C29.9781 32.9432 30.3073 32.614 30.7118 32.614H37.4476C37.8521 32.614 38.1813 32.9432 38.1813 33.3477V37.3859C38.1813 37.7905 37.8521 38.1197 37.4476 38.1197H30.7118C30.3073 38.1197 29.9781 37.7906 29.9781 37.3859Z" fill="url(#paint1_linear)"/>
<path d="M34.0416 34.1017C33.5351 34.1338 33.1212 34.5419 33.0828 35.048C33.0484 35.5 33.3065 35.8958 33.6874 36.0671V36.7117C33.6874 36.8325 33.7853 36.9305 33.9062 36.9305H34.3109C34.4318 36.9305 34.5297 36.8325 34.5297 36.7117V36.0671C34.8879 35.9061 35.1374 35.5465 35.1374 35.1284C35.1374 34.5381 34.6402 34.0639 34.0416 34.1017Z" fill="url(#paint2_linear)"/>
<path d="M49.7959 41.2797C49.2189 41.2797 48.7192 41.6166 48.483 42.1041H41.9277C42.218 41.6747 42.5058 41.2359 42.7888 40.7887H46.2014C46.4419 40.7887 46.6679 40.695 46.8381 40.525L47.8575 39.5055H48.456C48.6794 40.0246 49.1958 40.3891 49.7959 40.3891C50.5999 40.3891 51.254 39.735 51.254 38.931C51.254 38.1271 50.5999 37.473 49.7959 37.473C49.1402 37.473 48.5843 37.9082 48.4016 38.5049H47.8161C47.5755 38.5049 47.3495 38.5986 47.1793 38.7686L46.1599 39.7881H43.4051C43.8631 39.0234 44.3036 38.2382 44.7159 37.4378C44.8424 37.1921 44.7458 36.8904 44.5001 36.7639C44.2544 36.6375 43.9529 36.734 43.8263 36.9797C40.6907 43.0685 35.7385 48.4143 34.2954 49.9077C34.2383 49.9669 34.1616 49.9995 34.0796 49.9995C33.9976 49.9995 33.9209 49.9669 33.8638 49.9077C32.6556 48.6574 29.5452 45.296 26.7643 41.0969C23.3229 35.9005 21.578 31.286 21.578 27.3815C21.578 26.7774 21.5973 26.1862 21.6355 25.624C21.6402 25.5548 21.6896 25.4962 21.7586 25.478C22.6905 25.2334 23.601 24.9551 24.4648 24.6513C24.7255 24.5595 24.8624 24.2739 24.7707 24.0133C24.6789 23.7526 24.3932 23.6158 24.1327 23.7074C23.2945 24.0024 22.4102 24.2725 21.5045 24.5103C21.0194 24.6376 20.6709 25.058 20.6373 25.5563C20.5975 26.1408 20.5774 26.7549 20.5774 27.3815C20.5774 31.005 21.982 35.1713 24.7549 39.788H21.9995L20.98 38.7686C20.81 38.5986 20.5838 38.5049 20.3432 38.5049H19.8523C19.6696 37.9082 19.1137 37.473 18.458 37.473C17.6541 37.4729 17 38.1271 17 38.931C17 39.7349 17.6541 40.389 18.4581 40.389C19.058 40.389 19.5745 40.0245 19.7979 39.5054H20.3019L21.3213 40.5249C21.4914 40.695 21.7175 40.7886 21.9581 40.7886H25.3731C25.5541 41.074 25.7392 41.3607 25.9303 41.6493C26.0315 41.8021 26.1332 41.9535 26.2351 42.104H19.771C19.5347 41.6165 19.035 41.2796 18.4581 41.2796C17.6541 41.2797 17 41.9337 17 42.7377C17 43.5416 17.6541 44.1957 18.4581 44.1957C19.1353 44.1957 19.7061 43.7315 19.8692 43.1046H26.9289C27.2554 43.565 27.5827 44.0122 27.9076 44.4448H23.9612C23.7566 43.8865 23.2199 43.487 22.5916 43.487C21.7877 43.487 21.1336 44.1411 21.1336 44.9451C21.1336 45.749 21.7877 46.4031 22.5916 46.4031C23.2199 46.4031 23.7566 46.0037 23.9612 45.4454H28.6746C29.0133 45.8783 29.3463 46.2931 29.6696 46.6869H27.506C27.2656 46.6869 27.0395 46.7805 26.8692 46.9507L25.8498 47.9701H25.2578C25.0532 47.4118 24.5165 47.0123 23.8882 47.0123C23.0842 47.0123 22.4301 47.6664 22.4301 48.4704C22.4301 49.2743 23.0842 49.9284 23.8882 49.9284C24.5165 49.9284 25.0532 49.5289 25.2578 48.9707H25.8912C26.1316 48.9707 26.3576 48.8771 26.528 48.7069L27.5473 47.6875H30.507C31.6409 49.0171 32.59 50.0294 33.1443 50.6031C33.3918 50.8591 33.724 51.0001 34.0797 51.0001C34.4354 51.0001 34.7676 50.8591 35.015 50.6031C35.6387 49.9577 36.5738 48.9563 37.6584 47.6862C37.6674 47.6867 37.6763 47.6875 37.6854 47.6875H40.612L41.6315 48.7071C41.8017 48.8771 42.0278 48.9707 42.2682 48.9707H42.9015C43.1061 49.5289 43.6429 49.9284 44.2712 49.9284C45.0751 49.9284 45.7292 49.2743 45.7292 48.4704C45.7292 47.6664 45.0751 47.0123 44.2712 47.0123C43.6429 47.0123 43.1061 47.4118 42.9015 47.9701H42.3096L41.29 46.9505C41.1199 46.7805 40.8938 46.6869 40.6534 46.6869H38.4952C38.8195 46.2921 39.1524 45.8776 39.4905 45.4454H44.2173C44.4218 46.0037 44.9585 46.4031 45.5868 46.4031C46.3908 46.4031 47.0449 45.749 47.0449 44.9451C47.0449 44.1411 46.3908 43.487 45.5868 43.487C44.9585 43.487 44.4218 43.8865 44.2173 44.4448H40.2575C40.5822 44.0121 40.9091 43.5647 41.235 43.1046H48.3847C48.5478 43.7315 49.1186 44.1957 49.7959 44.1957C50.5999 44.1957 51.254 43.5416 51.254 42.7377C51.254 41.9337 50.5999 41.2797 49.7959 41.2797ZM49.7959 38.4735C50.0481 38.4735 50.2534 38.6787 50.2534 38.931C50.2534 39.1832 50.0481 39.3884 49.7959 39.3884C49.5437 39.3884 49.3385 39.1832 49.3385 38.931C49.3385 38.6787 49.5437 38.4735 49.7959 38.4735ZM18.4581 39.3884C18.2058 39.3884 18.0006 39.1832 18.0006 38.931C18.0006 38.6787 18.2058 38.4735 18.4581 38.4735C18.7103 38.4735 18.9155 38.6787 18.9155 38.931C18.9155 39.1832 18.7103 39.3884 18.4581 39.3884ZM18.4581 43.1951C18.2058 43.1951 18.0006 42.9899 18.0006 42.7377C18.0006 42.4854 18.2058 42.2802 18.4581 42.2802C18.7103 42.2802 18.9155 42.4854 18.9155 42.7377C18.9155 42.9899 18.7103 43.1951 18.4581 43.1951ZM22.5916 45.4025C22.3393 45.4025 22.1341 45.1974 22.1341 44.9451C22.1341 44.6928 22.3393 44.4876 22.5916 44.4876C22.8438 44.4876 23.049 44.6928 23.049 44.9451C23.049 45.1974 22.8438 45.4025 22.5916 45.4025ZM23.8883 48.9278C23.636 48.9278 23.4308 48.7226 23.4308 48.4704C23.4308 48.2182 23.636 48.0129 23.8883 48.0129C24.1406 48.0129 24.3458 48.2182 24.3458 48.4704C24.3458 48.7226 24.1406 48.9278 23.8883 48.9278ZM44.2711 48.0129C44.5234 48.0129 44.7286 48.2182 44.7286 48.4704C44.7286 48.7226 44.5234 48.9278 44.2711 48.9278C44.0188 48.9278 43.8136 48.7226 43.8136 48.4704C43.8136 48.2182 44.0188 48.0129 44.2711 48.0129ZM45.5869 44.4876C45.8392 44.4876 46.0444 44.6928 46.0444 44.9451C46.0444 45.1974 45.8392 45.4025 45.5869 45.4025C45.3347 45.4025 45.1295 45.1974 45.1295 44.9451C45.1295 44.6928 45.3347 44.4876 45.5869 44.4876ZM49.7959 43.1951C49.5437 43.1951 49.3385 42.9899 49.3385 42.7377C49.3385 42.4854 49.5437 42.2802 49.7959 42.2802C50.0481 42.2802 50.2534 42.4854 50.2534 42.7377C50.2534 42.9899 50.0481 43.1951 49.7959 43.1951Z" fill="url(#paint3_linear)"/>
<path d="M34.9313 46.6036C35.1339 46.1148 34.9019 45.5543 34.4132 45.3517C33.9244 45.1491 33.364 45.3811 33.1614 45.8699C32.9588 46.3587 33.1908 46.9191 33.6795 47.1217C34.1683 47.3243 34.7287 47.0923 34.9313 46.6036Z" fill="url(#paint4_linear)"/>
<path d="M34.1883 22.8433C34.7104 22.7587 35.065 22.2669 34.9804 21.7448C34.8958 21.2228 34.4039 20.8682 33.8818 20.9528C33.3598 21.0375 33.0051 21.5293 33.0897 22.0513C33.1744 22.5734 33.6662 22.928 34.1883 22.8433Z" fill="url(#paint5_linear)"/>
<path d="M24.0953 26.6257C23.5664 26.6257 23.1376 27.0545 23.1376 27.5835C23.1376 28.1124 23.5664 28.5412 24.0953 28.5412C24.6242 28.5412 25.0531 28.1124 25.0531 27.5835C25.053 27.0546 24.6242 26.6257 24.0953 26.6257Z" fill="url(#paint6_linear)"/>
<path d="M44.0643 26.6257C43.5354 26.6257 43.1065 27.0545 43.1065 27.5835C43.1065 28.1124 43.5353 28.5412 44.0643 28.5412C44.5932 28.5412 45.022 28.1124 45.022 27.5835C45.022 27.0546 44.5932 26.6257 44.0643 26.6257Z" fill="url(#paint7_linear)"/>
<defs>
<linearGradient id="paint0_linear" x1="36.8357" y1="17" x2="36.8357" y2="35.5399" gradientUnits="userSpaceOnUse">
<stop stop-color="#03B379"/>
<stop offset="1" stop-color="#14D999"/>
</linearGradient>
<linearGradient id="paint1_linear" x1="34.0797" y1="27.3372" x2="34.0797" y2="39.1203" gradientUnits="userSpaceOnUse">
<stop stop-color="#03B379"/>
<stop offset="1" stop-color="#14D999"/>
</linearGradient>
<linearGradient id="paint2_linear" x1="34.1086" y1="34.0996" x2="34.1086" y2="36.9305" gradientUnits="userSpaceOnUse">
<stop stop-color="#03B379"/>
<stop offset="1" stop-color="#14D999"/>
</linearGradient>
<linearGradient id="paint3_linear" x1="34.127" y1="23.679" x2="34.127" y2="51.0001" gradientUnits="userSpaceOnUse">
<stop stop-color="#03B379"/>
<stop offset="1" stop-color="#14D999"/>
</linearGradient>
<linearGradient id="paint4_linear" x1="33.1614" y1="45.8699" x2="34.9313" y2="46.6035" gradientUnits="userSpaceOnUse">
<stop stop-color="#03B379"/>
<stop offset="1" stop-color="#14D999"/>
</linearGradient>
<linearGradient id="paint5_linear" x1="33.8818" y1="20.9528" x2="34.1883" y2="22.8433" gradientUnits="userSpaceOnUse">
<stop stop-color="#03B379"/>
<stop offset="1" stop-color="#14D999"/>
</linearGradient>
<linearGradient id="paint6_linear" x1="24.0953" y1="26.6257" x2="24.0953" y2="28.5412" gradientUnits="userSpaceOnUse">
<stop stop-color="#03B379"/>
<stop offset="1" stop-color="#14D999"/>
</linearGradient>
<linearGradient id="paint7_linear" x1="44.0642" y1="26.6257" x2="44.0642" y2="28.5412" gradientUnits="userSpaceOnUse">
<stop stop-color="#03B379"/>
<stop offset="1" stop-color="#14D999"/>
</linearGradient>
</defs>
</svg>
