<svg width="68" height="68" viewBox="0 0 68 68" fill="none" xmlns="http://www.w3.org/2000/svg">
<rect x="1" y="1" width="66" height="66" rx="2.38179" fill="#14D999" fill-opacity="0.1" stroke="#14D999" stroke-width="2"/>
<path d="M34.7006 41.818V37.5266H44.4064C44.8075 37.5266 45.1283 37.2057 45.1283 36.8046C45.1283 36.4036 44.8075 36.1228 44.4064 36.1228H24.2729V34.4384H48.778C49.1791 34.4384 49.4999 34.1175 49.4999 33.7164V20.7219C49.4999 20.3209 49.1791 20 48.778 20H28.7648C28.3638 20 28.0429 20.3209 28.0429 20.7219C28.0429 21.123 28.3638 21.4438 28.7648 21.4438H48.0561V33.0346H19.9013V21.4438H22.6686C23.0697 21.4438 23.3906 21.123 23.3906 20.7219C23.3906 20.3209 23.0697 20 22.6686 20H19.1794C18.7783 20 18.4575 20.3209 18.4575 20.7219V33.7164C18.4575 34.1175 18.7783 34.4384 19.1794 34.4384H22.8291V36.8046C22.8291 37.2057 23.1499 37.4865 23.5109 37.5266H33.2568V41.818C32.0937 42.0987 31.2113 42.9811 30.9306 44.1441H20.1419C19.7409 42.4597 18.0965 41.4169 16.412 41.818C14.7275 42.219 13.6848 43.8634 14.0858 45.5479C14.4869 47.2324 16.1313 48.2751 17.8157 47.8741C17.9762 47.8339 18.1767 47.7938 18.3371 47.7136C18.6981 47.5532 18.8585 47.1521 18.6981 46.7912C18.5377 46.4302 18.1366 46.2698 17.7756 46.4302C16.8933 46.7912 15.8906 46.3901 15.5297 45.5078C15.1687 44.6254 15.5698 43.6228 16.4521 43.2618C17.3345 42.9008 18.3371 43.3019 18.6981 44.1843C18.7783 44.3848 18.8184 44.6254 18.8184 44.8661C18.8184 45.2671 19.1393 45.588 19.5403 45.588H30.9707C31.3718 47.2725 33.0161 48.3152 34.7006 47.9142C36.3851 47.5131 37.4279 45.8687 37.0268 44.1843C36.746 42.9811 35.8236 42.0987 34.7006 41.818ZM33.9787 46.5505C33.0161 46.5505 32.2541 45.7885 32.2541 44.826C32.2541 43.8634 33.0161 43.1014 33.9787 43.1014C34.9412 43.1014 35.7033 43.8634 35.7033 44.826C35.7033 45.7885 34.9412 46.5505 33.9787 46.5505ZM50.8635 41.7378C49.4197 41.7378 48.1363 42.7404 47.8154 44.1441H42.1604C41.7594 44.1441 41.4385 44.465 41.4385 44.8661C41.4385 45.2671 41.7594 45.588 42.1604 45.588H47.8154C48.2165 47.2725 49.8609 48.3152 51.5454 47.9142C53.2298 47.5131 54.2726 45.8687 53.8715 44.1843C53.5507 42.7404 52.3074 41.7378 50.8635 41.7378ZM50.8635 46.5505C49.901 46.5505 49.139 45.7885 49.139 44.826C49.139 43.8634 49.901 43.1014 50.8635 43.1014C51.8261 43.1014 52.5881 43.8634 52.5881 44.826C52.548 45.7885 51.786 46.5505 50.8635 46.5505ZM24.674 20.7219C24.674 20.3209 24.9948 20 25.3959 20H25.9574C26.3584 20 26.6793 20.3209 26.6793 20.7219C26.6793 21.123 26.3584 21.4438 25.9574 21.4438H25.3558C24.9547 21.4438 24.674 21.123 24.674 20.7219ZM40.2353 44.8661C40.2353 45.2671 39.9145 45.588 39.5134 45.588H38.9519C38.5508 45.588 38.23 45.2671 38.23 44.8661C38.23 44.465 38.5508 44.1441 38.9519 44.1441H39.5134C39.9145 44.1441 40.2353 44.465 40.2353 44.8661ZM29.0456 30.2673L31.2514 24.1711H29.9279L28.444 28.7031L26.8798 24.1711H25.5563L27.7221 30.2673H29.0456ZM33.0963 27.9812H34.6204C35.6231 27.9812 36.5455 27.2192 36.5455 26.0561C36.5455 25.4545 36.1845 24.1711 34.4199 24.1711C33.9386 24.1711 31.853 24.1711 31.853 24.1711V30.2673H33.0963V27.9812ZM33.0963 25.2139H34.3798C35.0616 25.2139 35.2621 25.6951 35.2621 26.0561C35.2621 26.4973 35.0616 26.9384 34.3396 26.9384H33.0963V25.2139ZM38.7113 26.2967L41.1578 30.2673H42.4011V24.1711H41.2781V28.262L38.7514 24.1711H37.5482V30.2673H38.7113V26.2967Z" fill="url(#paint0_linear)"/>
<defs>
<linearGradient id="paint0_linear" x1="33.9787" y1="20" x2="33.9787" y2="48" gradientUnits="userSpaceOnUse">
<stop stop-color="#03B379"/>
<stop offset="1" stop-color="#14D999"/>
</linearGradient>
</defs>
</svg>
