<svg width="462" height="412" viewBox="0 0 462 412" fill="none" xmlns="http://www.w3.org/2000/svg">
<g opacity="0.4">
<path opacity="0.3" d="M79.955 280.977C79.8233 280.977 79.8234 280.977 79.8234 280.977L0.823349 235.289C0.691683 235.157 0.560018 234.893 0.691685 234.762C0.823351 234.63 1.08669 234.499 1.21835 234.63L80.0867 280.187L267.185 172.088C267.317 171.957 267.448 171.957 267.58 172.088L392.268 244.11L435.323 219.225C435.455 219.094 435.718 219.225 435.85 219.357C435.982 219.489 435.85 219.752 435.718 219.884L392.532 244.9C392.4 245.032 392.268 245.032 392.137 244.9L267.317 172.879L80.2183 280.977C80.0867 280.977 79.955 280.977 79.955 280.977Z" fill="#0087D8"/>
<path opacity="0.3" d="M264.407 364.015C264.276 364.015 264.276 364.015 264.276 364.015L184.486 317.931C184.354 317.8 184.354 317.668 184.354 317.536C184.354 317.405 184.486 317.273 184.486 317.141L283.762 259.866C283.894 259.735 284.157 259.866 284.289 259.998C284.421 260.13 284.289 260.393 284.157 260.525L185.407 317.536L264.671 363.225C264.802 363.356 264.934 363.62 264.802 363.751C264.671 363.883 264.539 364.015 264.407 364.015Z" fill="#0087D8"/>
<path opacity="0.3" d="M432.163 411.327C432.032 411.327 432.032 411.327 432.032 411.327L0.691635 162.213C0.559969 162.082 0.428304 161.818 0.559971 161.687C0.691637 161.555 0.954973 161.423 1.08664 161.555L432.295 410.537C432.427 410.668 432.558 410.932 432.427 411.063C432.427 411.195 432.295 411.327 432.163 411.327Z" fill="#0087D8"/>
<path opacity="0.3" d="M171.463 305.204C171.332 305.204 171.332 305.204 171.332 305.204L58.0983 239.897C57.9667 239.765 57.9667 239.634 57.9667 239.502C57.9667 239.37 58.0983 239.239 58.0983 239.107L157.375 181.832C157.507 181.7 157.77 181.832 157.902 181.964C158.033 182.095 157.902 182.359 157.77 182.49L59.02 239.502L171.463 304.414L441.117 148.652C441.248 148.52 441.512 148.652 441.643 148.784C441.775 148.915 441.643 149.179 441.512 149.31L171.727 305.204C171.595 305.204 171.595 305.204 171.463 305.204Z" fill="#0087D8"/>
</g>
<g opacity="0.2">
<path opacity="0.6" d="M242.037 0L152.767 51.4817V224.887L242.037 173.405V0Z" fill="url(#paint0_linear)"/>
</g>
<g opacity="0.4">
<path opacity="0.6" d="M252.438 5.13525L163.168 56.6169V230.022L252.438 178.54V5.13525Z" fill="url(#paint1_linear)"/>
</g>
<g opacity="0.6">
<path opacity="0.6" d="M262.708 10.1384L173.57 61.7518V235.157L262.708 183.675V10.1384Z" fill="url(#paint2_linear)"/>
</g>
<path opacity="0.2" d="M52.4949 295.828L32.2203 284.137L52.4949 272.446L72.6216 284.137L52.4949 295.828Z" fill="url(#paint3_linear)"/>
<path opacity="0.2" d="M52.4949 284.137L32.2203 272.446L52.4949 260.754L72.6216 272.446L52.4949 284.137Z" fill="url(#paint4_linear)"/>
<path opacity="0.2" d="M52.4949 272.446L32.2203 260.754L52.4949 249.211L72.6216 260.754L52.4949 272.446Z" fill="url(#paint5_linear)"/>
<path opacity="0.7" d="M52.4949 296.864C52.3469 296.864 52.0509 296.864 51.9029 296.716L31.7763 285.025C31.4803 284.877 31.1843 284.433 31.1843 284.137C31.1843 283.841 31.3323 283.397 31.7763 283.249L51.9029 271.558C52.1989 271.41 52.6429 271.41 52.9389 271.558L73.0654 283.249C73.3614 283.397 73.6574 283.841 73.6574 284.137C73.6574 284.581 73.5094 284.877 73.0654 285.025L52.9389 296.716C52.7909 296.864 52.6429 296.864 52.4949 296.864ZM34.4401 284.137L52.4949 294.496L70.5496 284.137L52.4949 273.777L34.4401 284.137Z" fill="#6EB4FF"/>
<path opacity="0.3" d="M241.905 283.873C241.115 283.873 240.325 283.742 239.798 283.347L192.003 255.828C191.345 255.433 191.082 254.907 191.082 254.38C191.082 253.722 191.608 253.063 192.398 252.668L279.693 202.24C281.142 201.45 283.248 201.318 284.565 202.108L332.36 229.627C333.018 230.022 333.282 230.548 333.282 231.075C333.282 231.733 332.755 232.392 331.965 232.787L244.67 283.215C243.748 283.742 242.827 283.873 241.905 283.873ZM240.062 282.82C241.115 283.347 242.958 283.347 244.143 282.688L331.438 232.26C331.965 231.997 332.36 231.47 332.36 231.075C332.36 230.68 332.097 230.417 331.833 230.285L284.038 202.767C282.985 202.24 281.142 202.24 279.957 202.898L192.662 253.327C192.135 253.59 191.74 254.117 191.74 254.512C191.74 254.907 192.003 255.17 192.267 255.302L240.062 282.82Z" fill="#0087D8"/>
<path d="M242.168 93.8784H232.162C233.61 90.4551 234.532 88.3484 234.532 88.3484L334.862 49.2434V216.855V216.987C334.862 217.25 334.598 217.513 334.203 217.777L242.695 270.575C242.563 270.707 242.3 270.707 242.168 270.838V93.8784Z" fill="url(#paint6_linear)"/>
<path d="M182.874 69.6104L240.676 102.527V203.384V270.797C240.017 270.797 239.359 270.534 238.832 270.27L183.796 238.539C183.269 238.275 183.006 237.749 182.874 237.354V69.6104Z" fill="url(#paint7_linear)"/>
<path d="M245.065 52.4033V201.318V244.768V269.258L242.695 270.707C242.3 270.97 241.642 271.102 240.983 271.102C240.325 271.102 240.325 270.707 239.798 270.443L239.272 270.18L239.798 244.505V204.215L238.613 52.535H245.065V52.4033Z" fill="url(#paint8_linear)"/>
<path opacity="0.7" d="M238.613 244.768V205.137V101.515L240.983 102.832V203.688V271.102C240.852 271.102 240.72 271.102 240.588 271.102C240.588 271.102 240.588 271.102 240.457 271.102C240.193 271.102 239.798 270.97 239.535 270.838C239.403 270.838 239.272 270.707 239.14 270.575L238.613 270.312V244.768Z" fill="#6EB4FF"/>
<g opacity="0.51">
<path d="M330.385 58.46L249.673 105.07V261.885L330.385 215.275V58.46Z" fill="url(#paint9_linear)"/>
</g>
<path d="M242.694 102.963L334.203 50.1651C335.124 49.6384 334.993 48.7168 333.939 48.0584L278.903 16.3268C277.849 15.6684 276.269 15.6684 275.348 16.1951L183.839 68.9934C182.918 69.5201 183.049 70.4418 184.103 71.1001L239.139 102.832C240.193 103.49 241.773 103.49 242.694 102.963Z" fill="url(#paint10_linear)"/>
<path opacity="0.7" d="M334.203 49.5064L242.695 102.305C241.773 102.831 240.193 102.831 239.14 102.173L184.103 70.4414C183.708 70.1781 183.445 69.9147 183.313 69.6514C183.05 70.1781 183.313 70.7048 184.103 71.2314L239.14 102.963C240.193 103.621 241.773 103.621 242.695 103.095L334.203 50.2964C334.73 49.9014 334.993 49.5064 334.73 48.9797C334.73 49.1114 334.467 49.2431 334.203 49.5064Z" fill="#6EB4FF"/>
<path opacity="0.7" d="M241.773 93.3517L194.242 65.965L193.583 66.2283L241.773 94.1417L324.46 46.3467L323.802 45.9517L241.773 93.3517Z" fill="#6EB4FF"/>
<g opacity="0.7">
<g opacity="0.7">
<path d="M293.65 42.9233L294.967 42.1333L294.835 41.475L282.59 34.365L280.878 35.2867L281.273 35.8133L293.65 42.9233Z" fill="#6EB4FF"/>
<path d="M282.59 35.0233L281.273 35.8133L280.352 35.2866L282.59 33.97L295.757 41.6066L294.967 42.1333L282.59 35.0233Z" fill="#6EB4FF"/>
<path d="M289.568 45.1618L290.885 44.5035V43.8451L278.64 36.7351L276.928 37.5251L277.192 38.0518L289.568 45.1618Z" fill="#6EB4FF"/>
<path d="M278.508 37.2618L277.192 38.0517L276.402 37.5251L278.508 36.3401L291.807 43.9767L290.885 44.5034L278.508 37.2618Z" fill="#6EB4FF"/>
<path d="M285.618 47.5317L286.935 46.7417L286.803 46.0834L274.558 38.9734L272.978 39.7634L273.242 40.2901L285.618 47.5317Z" fill="#6EB4FF"/>
<path d="M274.558 39.6317L273.242 40.29L272.452 39.895L274.558 38.5784L287.857 46.215L286.935 46.7417L274.558 39.6317Z" fill="#6EB4FF"/>
<path d="M281.668 49.7702L282.985 49.1119L282.853 48.4535L270.608 41.3435L268.897 42.1335L269.292 42.6602L281.668 49.7702Z" fill="#6EB4FF"/>
<path d="M270.608 41.8701L269.292 42.6601L268.37 42.1335L270.608 40.9485L283.775 48.5851L282.985 49.1118L270.608 41.8701Z" fill="#6EB4FF"/>
</g>
<path opacity="0.7" d="M269.95 56.6169L271.267 55.8269L271.135 55.1686L258.89 48.0586L257.178 48.9803L257.573 49.5069L269.95 56.6169Z" fill="#6EB4FF"/>
<path opacity="0.7" d="M258.89 48.7167L257.573 49.5067L256.652 48.98L258.89 47.6633L272.057 55.3L271.267 55.8267L258.89 48.7167Z" fill="#6EB4FF"/>
<path opacity="0.7" d="M266 58.8554L267.317 58.197L267.185 57.5387L254.94 50.4287L253.228 51.2187L253.492 51.7454L266 58.8554Z" fill="#6EB4FF"/>
<path opacity="0.7" d="M254.808 50.9551L253.492 51.7451L252.702 51.2184L254.808 50.0334L268.107 57.6701L267.317 58.1968L254.808 50.9551Z" fill="#6EB4FF"/>
<path opacity="0.7" d="M261.918 61.2251L263.235 60.4351L263.103 59.7767L250.99 52.6667L249.278 53.5884L249.542 54.1151L261.918 61.2251Z" fill="#6EB4FF"/>
<path opacity="0.7" d="M250.858 53.3251L249.542 54.1151L248.752 53.5884L250.858 52.2717L264.157 59.9084L263.235 60.4351L250.858 53.3251Z" fill="#6EB4FF"/>
<path opacity="0.7" d="M257.968 63.4638L259.285 62.8054L259.153 62.1471L246.908 55.0371L245.197 55.8271L245.592 56.3538L257.968 63.4638Z" fill="#6EB4FF"/>
<path opacity="0.7" d="M246.908 55.5635L245.592 56.3535L244.67 55.8268L246.908 54.6418L260.075 62.2785L259.285 62.8052L246.908 55.5635Z" fill="#6EB4FF"/>
<path opacity="0.7" d="M246.25 70.3103L247.567 69.5203L247.435 68.862L235.19 61.752L233.61 62.6736L233.873 63.2003L246.25 70.3103Z" fill="#6EB4FF"/>
<path opacity="0.7" d="M235.19 62.41L233.873 63.2L232.952 62.6734L235.19 61.3567L248.357 68.9933L247.567 69.52L235.19 62.41Z" fill="#6EB4FF"/>
<path opacity="0.7" d="M242.3 72.5485L243.617 71.8902L243.485 71.2318L231.24 64.1218L229.528 64.9118L229.923 65.4385L242.3 72.5485Z" fill="#6EB4FF"/>
<path opacity="0.7" d="M231.24 64.6485L229.923 65.4385L229.002 64.9118L231.24 63.7268L244.407 71.3635L243.617 71.8902L231.24 64.6485Z" fill="#6EB4FF"/>
<path opacity="0.7" d="M238.218 74.9187L239.535 74.1287L239.403 73.4704L227.29 66.3604L225.578 67.282L225.842 67.8087L238.218 74.9187Z" fill="#6EB4FF"/>
<path opacity="0.7" d="M227.158 67.0184L225.842 67.8084L225.052 67.2818L227.158 65.9651L240.457 73.6017L239.535 74.1284L227.158 67.0184Z" fill="#6EB4FF"/>
<path opacity="0.7" d="M234.268 77.1569L235.585 76.4986L235.453 75.8402L223.208 68.7302L221.497 69.5202L221.892 70.0469L234.268 77.1569Z" fill="#6EB4FF"/>
<path opacity="0.7" d="M223.208 69.2569L221.892 70.0469L220.97 69.5202L223.208 68.3352L236.375 75.9719L235.585 76.4986L223.208 69.2569Z" fill="#6EB4FF"/>
</g>
<path d="M191.74 183.148L232.425 206.585V151.022L191.74 127.585V183.148Z" fill="#BCBEFF"/>
<path opacity="0.7" d="M194.11 128.902V182.095L232.425 204.215V206.585L191.74 183.148V127.585L194.11 128.902Z" fill="#6EB4FF"/>
<path opacity="0.7" d="M167.382 197.368L169.62 198.553L191.477 185.913C191.872 185.65 192.53 185.782 192.925 185.913L230.582 207.638C230.977 207.375 232.557 206.585 232.557 206.585L231.767 208.692C231.767 208.823 231.635 208.823 231.503 208.955L208.462 222.253C208.067 222.517 207.408 222.385 207.013 222.253L168.435 200.002C168.303 199.87 168.172 199.738 168.172 199.607L167.382 197.368Z" fill="#6EB4FF"/>
<path d="M167.645 197.763L207.145 220.542C207.54 220.805 208.198 220.805 208.593 220.542L232.162 206.98C232.557 206.717 232.425 206.322 232.03 206.19L192.53 183.412C192.135 183.148 191.477 183.148 191.082 183.412L167.513 196.973C167.118 197.105 167.25 197.5 167.645 197.763Z" fill="url(#paint11_linear)"/>
<path opacity="0.7" d="M219.127 215.67V215.275L217.547 216.197C217.547 216.197 217.547 216.197 217.547 216.328V216.723L219.127 215.67C218.995 215.67 219.127 215.67 219.127 215.67Z" fill="#6EB4FF"/>
<path opacity="0.7" d="M216.757 216.987V216.592L215.177 217.513C215.177 217.513 215.177 217.513 215.177 217.645V218.04L216.757 216.987Z" fill="#6EB4FF"/>
<path opacity="0.7" d="M225.973 205.795L193.188 186.835C192.925 186.703 192.662 186.703 192.53 186.835L180.812 193.55C180.68 193.682 180.68 193.945 180.812 193.945L213.597 212.905C213.86 213.037 214.123 213.037 214.255 212.905L225.973 206.19C226.237 206.058 226.237 205.795 225.973 205.795Z" fill="#6EB4FF"/>
<path d="M225.973 206.19L193.188 187.362C192.925 187.23 192.662 187.23 192.53 187.362L180.943 194.077L180.812 193.945C180.68 193.813 180.68 193.55 180.812 193.55L192.53 186.835C192.793 186.703 193.057 186.703 193.188 186.835L225.973 205.795C226.237 205.795 226.237 206.058 225.973 206.19Z" fill="url(#paint12_linear)"/>
<path opacity="0.7" d="M191.608 188.547L220.18 205.005L221.365 204.215L192.925 187.757L191.608 188.547Z" fill="#6EB4FF"/>
<path opacity="0.7" d="M188.58 190.258L215.308 205.795L216.493 205.005L189.765 189.6L188.58 190.258Z" fill="#6EB4FF"/>
<path opacity="0.7" d="M186.473 191.443L217.942 209.613L219.258 208.955L187.79 190.785L186.473 191.443Z" fill="#6EB4FF"/>
<path opacity="0.7" d="M184.498 192.628L215.967 210.798L217.283 210.14L185.683 191.97L184.498 192.628Z" fill="#6EB4FF"/>
<path opacity="0.7" d="M182.392 193.813L213.992 211.983L215.177 211.325L183.708 193.023L182.392 193.813Z" fill="#6EB4FF"/>
<path opacity="0.7" d="M221.892 205.927L223.077 206.717L224.393 205.927L223.077 205.268L221.892 205.927Z" fill="#6EB4FF"/>
<path opacity="0.7" d="M217.415 206.98L220.048 208.56L221.233 207.77L218.6 206.19L217.415 206.98Z" fill="#6EB4FF"/>
<path opacity="0.7" d="M192.003 210.403L183.182 205.268C182.787 205.005 182.787 204.742 183.182 204.61L189.238 201.055C189.633 200.792 190.16 200.792 190.555 201.055L199.377 206.19C199.772 206.453 199.772 206.717 199.377 206.848L193.32 210.403C192.793 210.535 192.267 210.535 192.003 210.403Z" fill="#6EB4FF"/>
<path opacity="0.7" d="M199.245 206.453L190.423 201.318C190.028 201.055 189.502 201.055 189.107 201.318L183.05 204.742C182.918 204.742 182.918 204.873 182.787 205.005C182.655 204.873 182.787 204.61 183.05 204.478L189.107 200.923C189.502 200.66 190.028 200.66 190.423 200.923L199.245 206.058C199.508 206.19 199.508 206.453 199.508 206.585C199.377 206.585 199.377 206.453 199.245 206.453Z" fill="#6EB4FF"/>
<path d="M194.11 128.902L232.425 151.022V204.215L194.11 182.095V128.902Z" fill="#24126A"/>
<path d="M194.11 128.902L232.425 151.022V204.215L194.11 182.095V128.902Z" fill="url(#paint13_linear)"/>
<g opacity="0.51">
<path d="M196.217 183.28V132.588L232.425 153.392V204.215L196.217 183.28Z" fill="url(#paint14_linear)"/>
</g>
<g opacity="0.11">
<g opacity="0.11">
<path opacity="0.11" d="M192.53 183.28L231.767 206.058C232.162 206.322 232.82 206.322 233.215 206.058L256.652 192.497C257.047 192.233 256.915 191.97 256.52 191.707L217.283 168.928C216.888 168.665 216.23 168.665 215.835 168.928L192.398 182.49C192.003 182.753 192.003 183.017 192.53 183.28Z" fill="url(#paint15_linear)"/>
<path opacity="0.11" d="M231.898 187.362L223.077 182.227C222.682 181.963 222.682 181.7 223.077 181.568L229.133 178.145C229.528 177.882 230.055 177.882 230.318 178.145L239.14 183.28C239.535 183.543 239.535 183.807 239.14 183.938L233.083 187.362C232.82 187.625 232.293 187.625 231.898 187.362Z" fill="url(#paint16_linear)"/>
<path opacity="0.11" d="M239.14 183.543L230.318 178.408C229.923 178.145 229.397 178.145 229.133 178.408L223.077 181.832C222.945 181.832 222.945 181.963 222.813 182.095C222.682 181.963 222.813 181.7 223.077 181.568L229.133 178.145C229.528 177.882 230.055 177.882 230.318 178.145L239.14 183.28C239.403 183.412 239.403 183.675 239.403 183.807C239.403 183.675 239.272 183.543 239.14 183.543Z" fill="#9198DB"/>
<g opacity="0.11">
<path opacity="0.11" d="M243.09 195.788L210.437 177.092C210.173 176.96 209.91 176.96 209.778 177.092L198.323 183.807L198.192 183.675C198.06 183.543 198.06 183.28 198.192 183.28L209.778 176.565C210.042 176.433 210.305 176.433 210.437 176.565L243.09 195.393C243.222 195.393 243.222 195.657 243.09 195.788Z" fill="#9198DB"/>
<g opacity="0.11">
<path opacity="0.11" d="M201.088 182.753L229.528 199.212L228.475 199.87L199.903 183.412L201.088 182.753Z" fill="#24126A"/>
<path opacity="0.11" d="M204.117 181.042L231.108 196.578L230.055 197.237L202.932 181.7L204.117 181.042Z" fill="#24126A"/>
<path opacity="0.11" d="M233.215 197.763L235.717 199.212L234.532 199.87L232.03 198.422L233.215 197.763Z" fill="#24126A"/>
<path opacity="0.11" d="M230.977 200.002L232.688 200.923L231.503 201.582L229.792 200.66L230.977 200.002Z" fill="#24126A"/>
<path opacity="0.11" d="M205.96 179.988L237.56 198.158L236.375 198.817L204.775 180.515L205.96 179.988Z" fill="#24126A"/>
</g>
</g>
</g>
</g>
<path d="M222.023 157.605L224.262 158.922V157.342L222.023 156.025V157.605Z" fill="white"/>
<path d="M222.023 168.007L224.262 169.323V160.37L222.023 159.053V168.007Z" fill="white"/>
<path d="M222.023 173.01L224.262 174.327V170.772L222.023 169.455V173.01Z" fill="white"/>
<path d="M222.023 178.145L224.262 179.462V175.907L222.023 174.59V178.145Z" fill="white"/>
<path d="M218.6 160.633L220.838 161.95V158.395L218.6 157.078V160.633Z" fill="white"/>
<path d="M218.6 167.48L220.838 168.796V163.53L218.6 162.213V167.48Z" fill="white"/>
<path d="M218.6 173.668L220.838 174.985V170.508L218.6 169.192V173.668Z" fill="white"/>
<path d="M222.023 183.28L224.262 184.597V181.042L222.023 179.725V183.28Z" fill="white"/>
<path d="M218.6 155.63L220.838 156.947V155.367L218.6 154.05V155.63Z" fill="white"/>
<path d="M247.435 105.597C247.435 104.543 248.225 103.227 249.015 102.832C249.41 102.568 249.937 102.568 250.2 102.7L251.385 103.358H250.727C250.727 103.49 250.727 103.622 250.727 103.753C250.727 104.807 249.937 106.123 249.147 106.518C249.015 106.65 248.883 106.65 248.752 106.65L249.147 107.308L247.962 106.65C247.698 106.518 247.435 106.123 247.435 105.597Z" fill="url(#paint17_linear)"/>
<path d="M248.62 106.255C248.62 107.308 249.41 107.703 250.2 107.177C251.122 106.65 251.78 105.333 251.78 104.412C251.78 103.49 250.99 102.963 250.2 103.49C249.41 104.017 248.62 105.202 248.62 106.255Z" fill="url(#paint18_linear)"/>
<path d="M249.278 105.86C249.278 106.518 249.673 106.65 250.2 106.387C250.727 106.123 251.122 105.333 251.122 104.807C251.122 104.148 250.727 104.017 250.2 104.28C249.673 104.543 249.278 105.202 249.278 105.86Z" fill="url(#paint19_linear)"/>
<path d="M328.147 59.25C328.147 58.1967 328.937 56.88 329.727 56.485C330.122 56.2217 330.648 56.2217 330.912 56.3533L332.097 57.0117H331.438C331.438 57.1433 331.438 57.275 331.438 57.4067C331.438 58.46 330.648 59.7767 329.858 60.1717C329.727 60.3033 329.595 60.3033 329.463 60.3033L329.858 60.9617L328.673 60.3033C328.278 60.1717 328.147 59.7767 328.147 59.25Z" fill="url(#paint20_linear)"/>
<path d="M329.332 59.9084C329.332 60.9617 330.122 61.3567 330.912 60.8301C331.833 60.3034 332.492 58.9867 332.492 58.0651C332.492 57.0117 331.702 56.6167 330.912 57.1434C329.99 57.6701 329.332 58.8551 329.332 59.9084Z" fill="url(#paint21_linear)"/>
<path d="M329.99 59.5133C329.99 60.1716 330.385 60.3033 330.912 60.04C331.438 59.7767 331.833 58.9866 331.833 58.46C331.833 57.8016 331.438 57.67 330.912 57.9333C330.385 58.1966 329.99 58.9866 329.99 59.5133Z" fill="url(#paint22_linear)"/>
<path d="M247.435 262.412C247.435 261.359 248.225 260.042 249.015 259.647C249.41 259.384 249.937 259.384 250.2 259.515L251.385 260.174C251.122 260.042 250.727 260.042 250.2 260.305C249.278 260.832 248.62 262.149 248.62 263.07C248.62 263.597 248.752 263.86 249.015 264.124L247.83 263.465C247.698 263.334 247.435 262.939 247.435 262.412Z" fill="url(#paint23_linear)"/>
<path d="M249.147 263.334C249.278 263.334 249.41 263.202 249.542 263.07C249.673 263.334 250.068 263.334 250.332 263.202C250.858 262.939 251.253 262.149 251.253 261.622C251.253 261.227 250.99 260.964 250.727 260.964C250.727 260.832 250.727 260.7 250.727 260.569C250.727 260.437 250.727 260.305 250.727 260.174H251.385C251.648 260.305 251.912 260.7 251.912 261.227C251.912 262.28 251.122 263.597 250.332 263.992C249.805 264.255 249.41 264.255 249.147 264.124L248.883 263.465C248.883 263.465 249.015 263.334 249.147 263.334Z" fill="url(#paint24_linear)"/>
<path d="M248.62 263.07C248.62 262.017 249.41 260.7 250.2 260.305C250.595 260.042 250.99 260.042 251.385 260.174H250.727C250.727 260.305 250.727 260.437 250.727 260.569C250.727 260.7 250.727 260.832 250.727 260.964C250.595 260.964 250.463 260.964 250.332 261.095C249.805 261.359 249.41 262.149 249.41 262.675C249.41 262.807 249.41 262.939 249.542 263.07C249.41 263.202 249.278 263.202 249.147 263.334C249.015 263.465 248.883 263.465 248.752 263.465L249.015 264.124C248.752 263.86 248.62 263.597 248.62 263.07Z" fill="url(#paint25_linear)"/>
<path d="M248.62 263.07C248.62 262.017 249.41 260.7 250.2 260.305C250.595 260.042 250.99 260.042 251.385 260.174H250.727C250.727 260.305 250.727 260.437 250.727 260.569C250.727 260.7 250.727 260.832 250.727 260.964C250.595 260.964 250.463 260.964 250.332 261.095C249.805 261.359 249.41 262.149 249.41 262.675C249.41 262.807 249.41 262.939 249.542 263.07C249.41 263.202 249.278 263.202 249.147 263.334C249.015 263.465 248.883 263.465 248.752 263.465L249.015 264.124C248.752 263.86 248.62 263.597 248.62 263.07Z" fill="url(#paint26_linear)"/>
<path d="M251.253 261.622C251.253 262.28 250.858 262.938 250.332 263.202C249.937 263.465 249.673 263.333 249.542 263.07C250.2 262.543 250.727 261.753 250.858 260.832C250.99 260.963 251.253 261.227 251.253 261.622Z" fill="url(#paint27_linear)"/>
<path d="M249.41 263.07C249.278 262.938 249.278 262.807 249.278 262.675C249.278 262.017 249.673 261.358 250.2 261.095C250.332 260.963 250.463 260.963 250.595 260.963C250.595 261.753 250.068 262.543 249.41 263.07Z" fill="url(#paint28_linear)"/>
<path d="M329.727 213.3C330.122 213.037 330.648 213.037 330.912 213.169L332.097 213.827C331.833 213.695 331.438 213.695 330.912 213.959C329.99 214.485 329.332 215.802 329.332 216.724C329.332 217.25 329.463 217.514 329.727 217.777L328.542 217.119C328.278 216.987 328.015 216.592 328.015 216.065C328.147 215.012 328.805 213.827 329.727 213.3Z" fill="url(#paint29_linear)"/>
<path d="M329.727 216.987C329.858 216.987 329.99 216.855 330.122 216.723C330.253 216.987 330.648 216.987 330.912 216.855C331.438 216.592 331.833 215.802 331.833 215.275C331.833 214.88 331.57 214.617 331.307 214.617C331.307 214.485 331.307 214.353 331.307 214.222C331.307 214.09 331.307 213.958 331.307 213.827H331.965C332.228 213.958 332.492 214.353 332.492 214.88C332.492 215.933 331.702 217.25 330.912 217.645C330.385 217.908 329.99 217.908 329.727 217.777L329.463 217.118C329.463 217.118 329.595 217.118 329.727 216.987Z" fill="url(#paint30_linear)"/>
<path d="M329.332 216.723C329.332 215.67 330.122 214.353 330.912 213.958C331.307 213.695 331.702 213.695 332.097 213.827H331.438C331.438 213.958 331.438 214.09 331.438 214.222C331.438 214.353 331.438 214.485 331.438 214.617C331.307 214.617 331.175 214.617 331.043 214.748C330.517 215.012 330.122 215.802 330.122 216.328C330.122 216.46 330.122 216.592 330.253 216.723C330.122 216.855 329.99 216.855 329.858 216.987C329.727 217.118 329.595 217.118 329.463 217.118L329.727 217.777C329.463 217.645 329.332 217.25 329.332 216.723Z" fill="url(#paint31_linear)"/>
<path d="M329.332 216.723C329.332 215.67 330.122 214.353 330.912 213.958C331.307 213.695 331.702 213.695 332.097 213.827H331.438C331.438 213.958 331.438 214.09 331.438 214.222C331.438 214.353 331.438 214.485 331.438 214.617C331.307 214.617 331.175 214.617 331.043 214.748C330.517 215.012 330.122 215.802 330.122 216.328C330.122 216.46 330.122 216.592 330.253 216.723C330.122 216.855 329.99 216.855 329.858 216.987C329.727 217.118 329.595 217.118 329.463 217.118L329.727 217.777C329.463 217.645 329.332 217.25 329.332 216.723Z" fill="url(#paint32_linear)"/>
<path d="M331.833 215.275C331.833 215.933 331.438 216.592 330.912 216.855C330.517 217.118 330.253 216.987 330.122 216.723C330.78 216.197 331.307 215.407 331.438 214.485C331.702 214.617 331.833 214.88 331.833 215.275Z" fill="url(#paint33_linear)"/>
<path d="M330.122 216.855C329.99 216.724 329.99 216.592 329.99 216.46C329.99 215.802 330.385 215.144 330.912 214.88C331.043 214.749 331.175 214.749 331.307 214.749C331.175 215.407 330.648 216.329 330.122 216.855Z" fill="url(#paint34_linear)"/>
<path opacity="0.3" d="M96.8047 217.862L44.533 187.71L96.8047 157.559L149.076 187.71L96.8047 217.862ZM45.9814 187.71L96.673 217.072L147.365 187.842L96.673 158.612L45.9814 187.71Z" fill="#0087D8"/>
<path opacity="0.7" d="M144.995 176.519V166.776L96.8046 193.372L48.483 166.776V176.519L96.8046 204.301L144.995 176.519Z" fill="#6EB4FF"/>
<path d="M96.8046 194.557L48.483 166.775L96.8046 138.862L144.995 166.775L96.8046 194.557Z" fill="url(#paint35_linear)"/>
<path opacity="0.7" d="M96.8046 193.767L49.1413 166.38L48.483 166.775L96.8046 194.557L144.995 166.775L144.336 166.38L96.8046 193.767Z" fill="#6EB4FF"/>
<path d="M96.8047 184.024L66.9163 166.775L96.8047 149.527L126.561 166.775L96.8047 184.024Z" fill="#0F054C"/>
<path opacity="0.6" d="M96.8047 184.024L66.9163 166.775L96.8047 149.527L126.561 166.775L96.8047 184.024Z" fill="url(#paint36_linear)"/>
<path opacity="0.6" d="M96.8046 125.432L126.561 142.681V166.776L96.8046 149.527V125.432Z" fill="url(#paint37_linear)"/>
<path opacity="0.5" d="M96.8047 149.527L66.9163 166.776V142.681L96.8047 125.432V149.527Z" fill="url(#paint38_linear)"/>
<path opacity="0.6" d="M96.8047 159.929L66.9163 142.681L96.8047 125.432L126.561 142.681L96.8047 159.929Z" fill="url(#paint39_linear)"/>
<path d="M96.8047 159.007L67.5747 142.286L66.9163 142.681L96.8047 159.929L126.561 142.681L125.903 142.286L96.8047 159.007Z" fill="url(#paint40_linear)"/>
<path opacity="0.6" d="M66.9163 142.681V166.776L96.8047 184.024V159.929L66.9163 142.681Z" fill="url(#paint41_linear)"/>
<path d="M294.835 142.595L301.682 138.645V137.197L294.835 141.147V142.595Z" fill="white"/>
<path opacity="0.3" d="M291.28 144.702L293.782 143.253V141.805L291.28 143.122V144.702Z" fill="white"/>
<path d="M288.515 146.282L290.227 145.36V143.78L288.515 144.702V146.282Z" fill="white"/>
<path d="M297.863 144.307L301.682 142.068V140.62L297.863 142.727V144.307Z" fill="white"/>
<path d="M292.333 147.598L296.81 144.965V143.385L292.333 146.018V147.598Z" fill="white"/>
<path d="M289.568 149.178L291.28 148.125V146.677L289.568 147.598V149.178Z" fill="white"/>
<path d="M286.935 150.627L288.647 149.705V148.125L286.935 149.178V150.627Z" fill="white"/>
<path d="M298.917 147.203L301.682 145.623V144.043L298.917 145.623V147.203Z" fill="white"/>
<path d="M296.942 148.256L297.863 147.73V146.281L296.942 146.808V148.256Z" fill="white"/>
<path d="M294.177 149.837L295.888 148.915V147.335L294.177 148.388V149.837Z" fill="white"/>
<path opacity="0.3" d="M291.675 154.84L301.682 149.047V147.467L291.675 153.26V154.84Z" fill="white"/>
<path d="M288.12 156.815L290.622 155.367V153.918L288.12 155.367V156.815Z" fill="white"/>
<path d="M298.917 154.05L301.682 152.47V151.021L298.917 152.601V154.05Z" fill="white"/>
<path d="M292.597 157.737L297.863 154.708V153.128L292.597 156.288V157.737Z" fill="white"/>
<path d="M289.832 159.317L291.543 158.395V156.815L289.832 157.868V159.317Z" fill="white"/>
<path opacity="0.3" d="M296.152 159.185L301.682 155.893V154.445L296.152 157.605V159.185Z" fill="white"/>
<path opacity="0.3" d="M291.017 162.082L295.098 159.712V158.263L291.017 160.633V162.082Z" fill="white"/>
<path d="M287.33 164.32L289.963 162.74V161.16L287.33 162.74V164.32Z" fill="white"/>
<path d="M299.838 160.501L301.682 159.448V157.868L299.838 158.922V160.501Z" fill="white"/>
<path d="M296.283 162.476L298.785 161.028V159.58L296.283 161.028V162.476Z" fill="white"/>
<path d="M291.28 165.373L295.23 163.135V161.555L291.28 163.925V165.373Z" fill="white"/>
<path d="M295.888 166.163L301.682 162.872V161.292L295.888 164.715V166.163Z" fill="white"/>
<path opacity="0.3" d="M289.437 169.85L294.835 166.822V165.242L289.437 168.402V169.85Z" fill="white"/>
<path d="M286.803 171.43L288.383 170.508V168.928L286.803 169.982V171.43Z" fill="white"/>
<path d="M284.17 173.01L285.75 171.957V170.508L284.17 171.43V173.01Z" fill="white"/>
<path d="M298.258 168.27L301.682 166.295V164.847L298.258 166.822V168.27Z" fill="white"/>
<path d="M283.775 148.915L279.035 151.68V150.232L283.775 147.467V148.915Z" fill="white"/>
<path opacity="0.3" d="M282.853 152.997L279.035 155.235V153.655L282.853 151.548V152.997Z" fill="white"/>
<path d="M281.8 157.078L279.035 158.658V157.078L281.8 155.498V157.078Z" fill="white"/>
<path d="M282.985 159.843L279.035 162.082V160.633L282.985 158.263V159.843Z" fill="white"/>
<path d="M281.8 163.925L279.035 165.505V164.057L281.8 162.477V163.925Z" fill="white"/>
<path d="M282.458 166.953L279.035 169.06V167.48L282.458 165.505V166.953Z" fill="white"/>
<path d="M280.878 171.43L279.035 172.483V170.903L280.878 169.85V171.43Z" fill="white"/>
<path d="M282.722 173.8L279.035 175.907V174.458L282.722 172.352V173.8Z" fill="white"/>
<path d="M282.458 177.355L279.035 179.33V177.882L282.458 175.907V177.355Z" fill="white"/>
<path d="M295.757 169.718L297.205 168.928V167.348L295.757 168.27V169.718Z" fill="white"/>
<path opacity="0.3" d="M291.412 172.22L294.703 170.377V168.797L291.412 170.772V172.22Z" fill="white"/>
<path d="M288.647 183.938L294.177 180.647V179.198L288.647 182.358V183.938Z" fill="white"/>
<path d="M284.828 186.045L287.067 184.86V183.28L284.828 184.596V186.045Z" fill="white"/>
<path d="M270.74 203.557C270.608 203.557 270.345 203.556 270.213 203.425C269.818 203.161 269.555 202.635 269.555 202.108V146.545C269.555 145.491 270.213 144.438 271.003 143.911L309.45 121.791C309.845 121.528 310.372 121.528 310.767 121.791C311.162 122.055 311.425 122.581 311.425 123.108V178.671C311.425 179.725 310.767 180.778 309.977 181.305L271.53 203.425C271.267 203.425 271.003 203.557 270.74 203.557ZM310.108 122.45H309.977L271.53 144.57C271.003 144.833 270.608 145.623 270.608 146.281V201.845C270.608 202.108 270.74 202.24 270.74 202.24C270.74 202.24 270.872 202.24 271.003 202.24L309.45 180.12C309.845 179.856 310.372 179.066 310.372 178.408V122.845C310.24 122.581 310.108 122.45 310.108 122.45Z" fill="white"/>
<g opacity="0.4">
<g opacity="0.4">
<path opacity="0.4" d="M240.457 286.375L188.185 256.223L240.457 226.072L292.728 256.223L240.457 286.375ZM189.633 256.223L240.325 285.585L291.017 256.355L240.325 227.125L189.633 256.223Z" fill="#42E8E0"/>
<path opacity="0.4" d="M288.647 245.032V235.289L240.457 262.017L192.135 235.289V245.032L240.457 272.945L288.647 245.032Z" fill="url(#paint42_linear)"/>
<path opacity="0.4" d="M240.457 263.202L192.135 235.289L240.457 207.507L288.647 235.289L240.457 263.202Z" fill="url(#paint43_linear)"/>
<path opacity="0.5" d="M240.457 262.412L192.793 234.894L192.135 235.289L240.457 263.202L288.647 235.289L287.988 234.894L240.457 262.412Z" fill="white"/>
<path opacity="0.4" d="M240.457 252.537L210.568 235.289L240.457 218.04L270.213 235.289L240.457 252.537Z" fill="#0F054C"/>
<g opacity="0.4">
<path opacity="0.5" d="M240.457 252.537L210.568 235.289L240.457 218.04L270.213 235.289L240.457 252.537Z" fill="url(#paint44_linear)"/>
<g opacity="0.4">
<path opacity="0.5" d="M240.457 193.945L270.213 211.193V235.288L240.457 218.04V193.945Z" fill="url(#paint45_linear)"/>
<path opacity="0.5" d="M240.457 228.442V252.537L270.213 235.288V211.193L240.457 228.442Z" fill="url(#paint46_linear)"/>
</g>
</g>
</g>
</g>
<ellipse opacity="0.7" cx="382.118" cy="307.106" rx="79.1054" ry="46.3864" fill="#6EB4FF"/>
<ellipse cx="381.935" cy="306.923" rx="63.6124" ry="37.0726" fill="url(#paint47_linear)"/>
<g opacity="0.84">
<ellipse cx="380.815" cy="306.072" rx="52.1208" ry="26.7399" fill="#14D999"/>
</g>
<path d="M414.926 268.307C413.776 267.731 412.625 267.155 411.475 266.579C411.091 266.387 410.708 266.195 410.325 266.003C409.558 265.619 408.982 265.427 408.215 265.043C408.024 265.043 408.024 265.043 407.832 264.851C407.64 264.659 407.257 264.659 407.065 264.467C406.106 264.083 405.148 263.891 404.189 263.507C403.805 263.315 403.614 263.315 403.23 263.123C403.038 263.123 402.847 262.931 402.655 262.931C402.272 262.739 401.888 262.739 401.505 262.547C400.546 262.355 399.587 261.971 398.437 261.779C398.245 261.779 397.862 261.587 397.67 261.587C397.286 261.587 396.903 261.395 396.519 261.395C395.752 261.203 394.794 261.011 394.027 261.011C393.643 261.011 393.452 260.819 393.068 260.819C392.685 260.819 392.301 260.819 391.918 260.627C391.151 260.435 390.384 260.435 389.617 260.435C389.233 260.435 388.85 260.435 388.466 260.243C388.083 260.243 387.699 260.243 387.316 260.243C386.549 260.243 385.782 260.243 384.823 260.051C384.44 260.051 384.056 260.051 383.673 260.051C383.29 260.051 383.098 260.051 382.714 260.051C381.756 260.051 380.989 260.051 380.03 260.051C379.647 260.051 379.071 260.051 378.688 260.051C378.496 260.051 378.113 260.051 377.921 260.051C376.77 260.051 375.812 260.243 374.661 260.243C374.278 260.243 373.703 260.243 373.319 260.243C373.127 260.243 372.936 260.243 372.744 260.243C372.361 260.243 372.169 260.243 371.785 260.435C370.635 260.627 369.484 260.627 368.526 260.819C368.334 260.819 367.951 260.819 367.759 261.011C367.567 261.011 367.567 261.011 367.375 261.011C366.8 261.011 366.417 261.203 365.841 261.395C364.883 261.587 364.116 261.779 363.157 261.971C362.582 262.163 361.815 262.355 361.24 262.547C360.473 262.739 359.514 262.931 358.747 263.123C358.555 263.123 358.364 263.123 358.172 263.315C357.213 263.699 356.255 263.891 355.296 264.275C355.104 264.275 355.104 264.467 354.912 264.467C353.954 264.851 352.803 265.235 351.845 265.811C351.461 266.003 351.269 266.003 350.886 266.195C349.735 266.771 348.777 267.155 347.626 267.731C347.435 267.923 347.243 267.923 347.051 268.115C346.859 268.307 346.668 268.307 346.476 268.499C346.092 268.691 345.901 268.883 345.709 269.075C345.517 269.266 345.134 269.458 344.942 269.65C344.75 269.842 344.367 270.034 344.175 270.226C343.983 270.418 343.792 270.61 343.408 270.802C343.216 270.994 342.833 271.186 342.641 271.378C342.449 271.57 342.258 271.762 342.066 271.954C341.874 272.146 341.683 272.338 341.299 272.53L341.107 272.722L340.916 272.914C340.532 273.298 340.149 273.682 339.765 273.874C339.573 274.066 339.573 274.066 339.382 274.258C338.998 274.642 338.615 275.218 338.231 275.602C338.231 275.794 338.04 275.794 338.04 275.986C337.848 276.37 337.656 276.562 337.273 276.946C337.081 277.138 337.081 277.33 336.889 277.522C336.697 277.714 336.506 278.098 336.314 278.29L336.122 278.482C336.122 278.674 335.93 278.674 335.93 278.866C335.739 279.058 335.739 279.25 335.547 279.634C335.355 279.826 335.355 280.018 335.355 280.21C335.163 280.402 335.163 280.594 334.972 280.978C334.972 281.17 334.972 281.17 334.78 281.362C334.78 281.362 334.78 281.554 334.588 281.554C334.588 281.746 334.397 281.938 334.397 282.13C334.397 282.322 334.205 282.514 334.205 282.706C334.205 282.898 334.013 283.09 334.013 283.282C334.013 283.474 334.013 283.474 334.013 283.666V283.858C334.013 284.05 334.013 284.242 333.821 284.626C333.821 284.818 333.821 285.01 333.821 285.202C333.821 285.394 333.821 285.586 333.821 285.97C333.821 286.162 333.821 286.162 333.821 286.354C333.821 286.546 333.821 286.546 333.821 286.738V304.976C333.821 304.784 333.821 304.4 333.821 304.209C333.821 304.017 333.821 303.825 333.821 303.441C333.821 303.249 333.821 303.057 333.821 302.865C333.821 302.673 333.821 302.481 334.013 302.097C334.013 301.905 334.013 301.713 334.205 301.521C334.205 301.329 334.397 301.137 334.397 300.945C334.397 300.753 334.588 300.561 334.588 300.369C334.588 300.177 334.78 299.985 334.78 299.793C334.78 299.601 334.972 299.409 334.972 299.217C335.163 299.025 335.163 298.833 335.355 298.449C335.355 298.257 335.547 298.065 335.547 297.873C335.739 297.681 335.739 297.489 335.93 297.105C336.122 296.913 336.122 296.721 336.314 296.529C336.506 296.337 336.697 295.953 336.889 295.761C337.081 295.569 337.081 295.377 337.273 295.185C337.464 294.801 337.656 294.609 338.04 294.225C338.231 294.033 338.231 294.033 338.423 293.841C338.806 293.457 339.19 292.881 339.573 292.497C339.765 292.305 339.765 292.305 339.957 292.113C340.34 291.729 340.724 291.345 341.107 291.153C341.299 290.961 341.491 290.769 341.683 290.769C341.874 290.577 342.066 290.385 342.449 290.193C342.641 290.001 342.833 289.809 343.025 289.617C343.216 289.425 343.6 289.233 343.792 289.041C343.983 288.849 344.175 288.657 344.559 288.465C344.75 288.273 345.134 288.081 345.326 287.889C345.517 287.697 345.901 287.505 346.092 287.313C346.284 287.121 346.668 286.929 347.051 286.738C347.435 286.546 347.818 286.354 348.202 286.162C349.16 285.586 350.311 285.01 351.461 284.626C351.845 284.434 352.036 284.434 352.42 284.242C353.379 283.858 354.529 283.474 355.488 282.898C355.679 282.898 355.679 282.706 355.871 282.706C357.022 282.322 358.172 281.938 359.322 281.554C360.089 281.362 361.048 281.17 361.815 280.978C362.39 280.786 363.157 280.594 363.732 280.402C364.691 280.21 365.458 280.018 366.417 279.826C366.992 279.634 367.759 279.634 368.334 279.442C368.526 279.442 368.909 279.442 369.101 279.25C370.251 279.058 371.21 278.866 372.361 278.866C372.744 278.866 372.936 278.866 373.319 278.674C373.894 278.674 374.661 278.482 375.237 278.482C376.387 278.482 377.346 278.29 378.496 278.29C379.263 278.29 379.838 278.29 380.605 278.29C381.564 278.29 382.331 278.29 383.29 278.29C384.056 278.29 384.823 278.29 385.399 278.29C386.166 278.29 386.933 278.29 387.891 278.482C388.658 278.482 389.425 278.674 390.192 278.674C390.959 278.674 391.726 278.866 392.493 278.866C393.26 278.866 393.835 279.058 394.602 279.058C395.369 279.25 396.328 279.25 397.095 279.442C397.67 279.634 398.437 279.634 399.012 279.826C399.971 280.018 400.929 280.21 402.08 280.594C402.655 280.786 403.422 280.978 403.997 281.17C404.381 281.17 404.572 281.362 404.956 281.554C405.915 281.938 406.873 282.13 407.832 282.514C408.024 282.706 408.407 282.706 408.599 282.898C409.558 283.282 410.325 283.666 411.091 283.858C411.475 284.05 411.858 284.242 412.242 284.434C413.392 285.01 414.543 285.586 415.693 286.162C425.088 291.345 429.882 298.257 429.69 304.976V286.738C429.115 280.21 424.321 273.49 414.926 268.307Z" fill="url(#paint48_linear)"/>
<path d="M415.371 288.309C415.371 288.691 415.371 288.882 415.371 289.264C415.371 289.646 415.371 290.028 415.18 290.219C415.18 290.41 414.989 290.792 414.989 290.983C414.989 291.365 414.798 291.556 414.607 291.938C414.417 292.129 414.417 292.511 414.226 292.702C414.035 293.084 413.844 293.466 413.653 293.657C413.462 294.039 413.08 294.612 412.698 294.994L412.507 295.185C412.126 295.567 411.744 296.14 411.362 296.522L411.171 296.713C410.789 297.095 410.216 297.668 409.835 298.05C409.453 298.241 409.071 298.623 408.88 298.814C408.498 299.005 408.307 299.387 407.925 299.578C407.543 299.769 407.162 300.151 406.78 300.342C406.398 300.533 406.016 300.915 405.443 301.106C404.489 301.679 403.343 302.252 402.198 302.634C401.816 302.825 401.625 302.825 401.243 303.016C400.289 303.398 399.525 303.78 398.57 303.971C398.188 304.162 397.998 304.162 397.616 304.353C397.043 304.544 396.47 304.735 395.897 304.926C395.516 305.117 394.943 305.117 394.561 305.308C393.988 305.499 393.225 305.499 392.652 305.69C392.27 305.69 391.888 305.881 391.315 305.881C389.979 306.072 388.833 306.263 387.497 306.454C387.115 306.454 386.733 306.454 386.351 306.645C385.588 306.645 384.824 306.836 384.06 306.836C383.488 306.836 383.106 306.836 382.533 306.836C381.96 306.836 381.197 306.836 380.624 306.836C380.051 306.836 379.669 306.836 379.097 306.836C378.524 306.836 377.951 306.836 377.378 306.836C376.806 306.836 376.424 306.836 375.851 306.645C375.278 306.645 374.705 306.454 374.133 306.454C373.56 306.454 373.178 306.263 372.605 306.263C372.033 306.263 371.46 306.072 370.887 305.881C370.505 305.881 369.932 305.69 369.551 305.69C368.787 305.499 368.214 305.308 367.451 305.117C367.069 304.926 366.687 304.926 366.305 304.735C364.969 304.353 363.823 303.971 362.678 303.589C362.105 303.398 361.532 303.207 360.959 302.825C360.577 302.634 360.387 302.634 360.005 302.443C359.241 302.061 358.286 301.679 357.523 301.106C350.841 297.477 347.404 292.511 347.404 287.736V305.881C347.404 310.656 350.65 315.622 357.523 319.251C358.286 319.633 359.241 320.015 360.005 320.397C360.196 320.588 360.577 320.588 360.959 320.779C361.532 320.97 361.914 321.161 362.487 321.352H362.678C363.823 321.734 365.16 322.116 366.305 322.498C366.496 322.498 366.496 322.498 366.687 322.498C366.878 322.498 367.26 322.689 367.641 322.689C368.405 322.88 368.978 323.071 369.742 323.262C369.932 323.262 370.123 323.262 370.314 323.453C370.505 323.453 370.887 323.453 371.078 323.644C371.651 323.835 372.223 323.835 372.796 324.026C372.987 324.026 373.369 324.026 373.56 324.217C373.751 324.217 374.133 324.217 374.324 324.217C374.896 324.217 375.469 324.408 376.042 324.408C376.233 324.408 376.615 324.408 376.806 324.408C376.996 324.408 377.378 324.408 377.569 324.408C378.142 324.408 378.715 324.408 379.287 324.408C379.669 324.408 379.86 324.408 380.242 324.408C380.433 324.408 380.624 324.408 381.006 324.408C381.579 324.408 382.151 324.408 382.915 324.408C383.297 324.408 383.488 324.408 383.87 324.408C384.06 324.408 384.251 324.408 384.442 324.408C385.206 324.408 385.97 324.408 386.733 324.217C387.115 324.217 387.306 324.217 387.688 324.217C387.879 324.217 387.879 324.217 387.879 324.217C389.215 324.026 390.552 323.835 391.697 323.644H391.888C392.27 323.644 392.652 323.453 393.034 323.453C393.606 323.262 394.37 323.262 394.943 323.071C395.325 322.88 395.897 322.88 396.279 322.689C396.852 322.498 397.425 322.307 397.998 322.116C398.188 322.116 398.188 322.116 398.379 321.925C398.57 321.925 398.761 321.734 398.952 321.734C399.907 321.352 400.67 321.161 401.625 320.779C402.007 320.588 402.198 320.588 402.58 320.397C403.725 319.824 404.68 319.442 405.825 318.869C406.016 318.869 406.016 318.678 406.207 318.678C406.589 318.487 406.78 318.296 407.162 318.105C407.543 317.914 407.925 317.532 408.307 317.341C408.689 317.15 408.88 316.959 409.262 316.577C409.644 316.386 410.025 316.004 410.216 315.813L410.407 315.622C410.789 315.24 411.171 314.858 411.553 314.476L411.744 314.285C411.935 314.094 412.126 313.712 412.316 313.521C412.507 313.33 412.698 313.139 412.698 312.948L412.889 312.757C413.08 312.375 413.462 311.993 413.653 311.611C413.653 311.611 413.653 311.42 413.844 311.42C414.035 311.038 414.226 310.656 414.417 310.465C414.417 310.274 414.607 310.083 414.798 309.892V309.701C414.989 309.319 414.989 309.128 415.18 308.746C415.18 308.555 415.371 308.364 415.371 308.173V307.982C415.371 307.6 415.371 307.218 415.562 307.027C415.562 306.836 415.562 306.645 415.562 306.454V306.263L415.371 288.309Z" fill="url(#paint49_linear)"/>
<path d="M405.443 274.94C418.808 282.197 418.808 294.23 405.634 301.488C392.461 308.746 370.887 308.746 357.523 301.488C344.158 294.23 344.158 282.197 357.332 274.94C370.505 267.491 392.079 267.491 405.443 274.94Z" fill="url(#paint50_angular)"/>
<path d="M434.463 289.265C434.463 289.456 434.463 289.838 434.463 290.029C434.463 290.22 434.463 290.411 434.463 290.602C434.463 290.793 434.463 291.175 434.272 291.366C434.272 291.557 434.272 291.748 434.081 292.13C434.081 292.321 433.89 292.703 433.89 292.894C433.89 293.085 433.699 293.276 433.699 293.658C433.699 293.849 433.508 294.231 433.508 294.422C433.508 294.613 433.317 294.804 433.317 294.995C433.127 295.186 433.127 295.568 432.936 295.759C432.745 295.95 432.745 296.141 432.554 296.332C432.363 296.523 432.363 296.905 432.172 297.096C431.981 297.287 431.981 297.478 431.79 297.669C431.599 298.051 431.408 298.242 431.217 298.624C431.026 298.815 431.026 299.006 430.836 299.197C430.645 299.579 430.263 299.77 430.072 300.152C429.881 300.343 429.881 300.343 429.69 300.534C429.308 301.107 428.735 301.489 428.354 302.062C428.163 302.253 428.163 302.253 427.972 302.444C427.59 302.826 427.208 303.208 426.826 303.59C426.635 303.781 426.444 303.972 426.253 304.163C426.063 304.354 425.681 304.545 425.49 304.736C425.299 304.927 424.917 305.118 424.726 305.309C424.535 305.5 424.153 305.69 423.962 305.881C423.772 306.072 423.39 306.263 423.199 306.454C422.817 306.645 422.626 306.836 422.244 307.027C422.053 307.218 421.671 307.409 421.481 307.6C421.099 307.791 420.908 307.982 420.526 308.173C420.144 308.364 419.762 308.746 419.38 308.937C418.235 309.51 417.089 310.083 415.753 310.656C415.371 310.847 415.18 311.038 414.798 311.038C413.653 311.611 412.507 311.993 411.362 312.375C411.171 312.375 411.171 312.566 410.98 312.566C409.834 312.948 408.498 313.33 407.162 313.903C406.207 314.094 405.443 314.476 404.489 314.667C403.725 314.858 403.152 315.049 402.389 315.24C401.434 315.431 400.479 315.622 399.525 315.813C398.761 316.004 398.188 316.195 397.425 316.195C397.043 316.195 396.852 316.195 396.47 316.386C395.325 316.577 393.988 316.768 392.843 316.959C392.461 316.959 392.079 316.959 391.697 317.15C390.361 317.341 388.833 317.341 387.306 317.532C387.115 317.532 386.733 317.532 386.542 317.532C385.588 317.532 384.633 317.532 383.679 317.532C382.724 317.532 381.769 317.532 380.815 317.532C380.051 317.532 379.287 317.532 378.333 317.532C377.378 317.532 376.615 317.532 375.66 317.341C374.896 317.341 373.942 317.15 373.178 317.15C372.223 317.15 371.46 316.959 370.505 316.959C369.742 316.768 368.978 316.768 368.214 316.577C367.26 316.386 366.305 316.195 365.35 316.195C364.396 316.004 363.441 315.813 362.487 315.622C362.296 315.622 362.105 315.431 361.723 315.431C360.386 315.049 359.05 314.858 357.714 314.476C357.332 314.285 356.95 314.285 356.568 314.094C355.423 313.712 354.468 313.33 353.322 313.139C352.941 312.948 352.75 312.948 352.368 312.757C351.413 312.375 350.459 311.993 349.504 311.611C349.122 311.42 348.55 311.229 348.168 311.038C346.831 310.465 345.495 309.701 344.349 309.128C333.849 303.399 328.694 295.759 328.694 288.31V306.454C328.694 314.094 333.849 321.543 344.349 327.273C345.686 328.037 346.831 328.61 348.168 329.183C348.55 329.374 349.122 329.565 349.504 329.756C350.268 330.138 351.031 330.52 351.795 330.711C351.986 330.711 352.177 330.902 352.177 330.902C352.559 331.093 352.75 331.093 353.132 331.284C354.277 331.666 355.232 332.048 356.377 332.239C356.759 332.43 357.141 332.43 357.523 332.621C357.714 332.621 358.095 332.812 358.286 332.812C359.432 333.194 360.386 333.385 361.532 333.576C361.723 333.576 361.914 333.767 362.296 333.767C362.868 333.958 363.25 333.958 363.823 334.149C364.205 334.149 364.778 334.34 365.159 334.34C366.114 334.531 367.069 334.722 368.023 334.722C368.405 334.722 368.787 334.913 369.169 334.913C369.551 334.913 369.932 334.913 370.505 335.104C371.46 335.295 372.223 335.295 373.178 335.295C373.56 335.295 373.942 335.486 374.514 335.486C374.896 335.486 375.278 335.486 375.66 335.486C376.615 335.486 377.378 335.677 378.333 335.677C378.715 335.677 379.287 335.677 379.669 335.677C380.051 335.677 380.433 335.677 380.815 335.677C381.769 335.677 382.724 335.677 383.679 335.677C384.251 335.677 384.633 335.677 385.206 335.677C385.779 335.677 386.161 335.677 386.733 335.677C386.924 335.677 387.306 335.677 387.497 335.677C388.642 335.677 389.979 335.486 391.124 335.486C391.315 335.486 391.506 335.486 391.888 335.486C392.27 335.486 392.652 335.486 393.034 335.295C394.179 335.104 395.516 334.913 396.661 334.722C397.043 334.722 397.234 334.722 397.616 334.531C397.807 334.531 397.998 334.531 397.998 334.531C398.57 334.34 399.143 334.34 399.716 334.149C400.67 333.958 401.625 333.767 402.58 333.576C403.343 333.385 403.916 333.194 404.68 333.003C405.634 332.812 406.589 332.621 407.353 332.239C407.543 332.239 407.734 332.048 407.925 332.048C409.071 331.666 410.025 331.284 411.171 330.902C411.362 330.902 411.362 330.711 411.553 330.711C412.698 330.329 413.844 329.756 414.989 329.374C415.371 329.183 415.562 328.992 415.944 328.992C417.089 328.419 418.426 327.846 419.571 327.273C419.762 327.082 419.953 327.082 420.144 326.891C420.335 326.7 420.526 326.7 420.717 326.509C421.099 326.318 421.29 326.127 421.671 325.936C422.053 325.745 422.244 325.554 422.435 325.363C422.817 325.172 423.008 324.981 423.39 324.79C423.581 324.599 423.962 324.408 424.153 324.217C424.344 324.026 424.726 323.835 424.917 323.644C425.108 323.453 425.49 323.262 425.681 323.071C425.872 322.88 426.253 322.689 426.444 322.498C426.635 322.498 426.635 322.307 426.826 322.307L427.017 322.116C427.399 321.734 427.781 321.352 428.163 320.97C428.354 320.779 428.354 320.779 428.545 320.588C429.117 320.015 429.499 319.633 429.881 319.06C430.072 318.869 430.072 318.869 430.072 318.678C430.263 318.296 430.645 318.105 430.836 317.723C431.026 317.532 431.026 317.341 431.217 317.15C431.408 316.768 431.599 316.577 431.79 316.195L431.981 316.004C431.981 315.813 432.172 315.813 432.172 315.622C432.363 315.431 432.363 315.049 432.554 314.858C432.745 314.667 432.745 314.476 432.936 314.285C433.127 314.094 433.127 313.712 433.317 313.521C433.317 313.33 433.508 313.33 433.508 313.139C433.508 312.948 433.508 312.948 433.699 312.757C433.699 312.566 433.89 312.184 433.89 311.993C433.89 311.802 434.081 311.611 434.081 311.229C434.081 311.038 434.272 310.656 434.272 310.465C434.272 310.274 434.272 310.274 434.463 310.083V309.892C434.463 309.701 434.463 309.319 434.654 309.128C434.654 308.937 434.654 308.746 434.654 308.555C434.654 308.364 434.654 307.982 434.654 307.791C434.654 307.6 434.654 307.409 434.654 307.409C434.654 307.218 434.654 307.027 434.654 307.027V288.883C434.463 288.501 434.463 288.883 434.463 289.265Z" fill="url(#paint51_linear)"/>
<path fill-rule="evenodd" clip-rule="evenodd" d="M419.379 309.014C440.207 297.436 440.207 278.718 419.187 267.139C398.166 255.754 364.225 255.561 343.398 267.139C322.57 278.525 322.57 297.436 343.59 309.014C364.611 320.592 398.552 320.592 419.379 309.014ZM415.892 306.951C397.123 317.384 366.551 317.384 347.588 306.951C328.626 296.518 328.432 279.515 347.395 269.275C366.164 258.842 396.736 258.842 415.699 269.275C434.468 279.708 434.661 296.518 415.892 306.951Z" fill="#61A9F7"/>
<path d="M441.527 262.524C441.718 262.524 441.718 262.333 441.909 262.142L443.436 226.044C443.436 225.853 443.245 225.662 443.245 225.662C443.054 225.662 442.863 225.853 442.863 226.044L441.336 262.142C441.145 262.524 441.336 262.524 441.527 262.524Z" fill="url(#paint52_linear)"/>
<path d="M364.587 299.387C364.778 299.387 364.778 299.196 364.778 299.005L364.396 264.816C364.396 264.625 364.205 264.434 364.205 264.434C364.014 264.434 364.014 264.625 364.014 264.816L364.396 299.005C364.396 299.196 364.396 299.387 364.587 299.387Z" fill="url(#paint53_linear)"/>
<path d="M331.367 310.083C331.94 310.083 332.321 309.51 332.321 308.937L329.839 236.74C329.839 235.976 329.267 235.594 328.694 235.594C328.121 235.594 327.739 236.167 327.739 236.74L330.412 308.937C330.412 309.51 330.794 310.083 331.367 310.083Z" fill="url(#paint54_linear)"/>
<path d="M432.172 254.121C432.745 254.121 433.127 253.739 433.127 253.166L435.418 187.08C435.418 186.507 435.036 185.934 434.463 185.934C433.89 185.934 433.508 186.507 433.508 187.08L431.217 253.166C431.217 253.548 431.599 254.121 432.172 254.121Z" fill="url(#paint55_linear)"/>
<path d="M369.169 227.571C369.741 227.571 370.123 227.189 370.123 226.616L369.551 147.925C369.551 147.352 368.978 146.779 368.405 146.779C367.832 146.779 367.26 147.352 367.26 147.925L368.023 226.616C368.214 226.998 368.596 227.571 369.169 227.571Z" fill="url(#paint56_linear)"/>
<path d="M342.249 242.852L340.34 175.62C340.34 174.856 339.767 174.283 339.194 174.283C338.622 174.283 338.049 174.856 338.049 175.62L339.958 242.852H342.249Z" fill="url(#paint57_linear)"/>
<path d="M342.44 282.006C342.249 282.006 342.249 281.815 342.249 281.815L341.486 255.076C341.486 254.885 341.486 254.885 341.677 254.885C341.867 254.885 341.867 255.076 341.867 255.076L342.631 281.815C342.631 282.006 342.631 282.006 342.44 282.006Z" fill="url(#paint58_linear)"/>
<path d="M352.368 189.944C352.177 189.944 352.177 189.753 352.177 189.753L351.604 159.385C351.604 159.194 351.795 159.194 351.795 159.194C351.986 159.194 351.986 159.385 351.986 159.385L352.559 189.753C352.559 189.944 352.368 189.944 352.368 189.944Z" fill="url(#paint59_linear)"/>
<path d="M423.199 260.424V279.523C422.817 279.523 422.435 279.141 422.435 278.759L423.962 224.707C423.962 224.134 424.344 223.752 424.726 223.752C425.108 223.752 425.49 224.134 425.49 224.707L423.771 278.759C423.962 279.141 423.771 260.424 423.199 260.424Z" fill="url(#paint60_linear)"/>
<path d="M322.203 249.345C321.821 249.345 321.439 248.963 321.439 248.581L319.339 197.967C319.339 197.585 319.53 197.203 320.103 197.203C320.484 197.203 320.866 197.585 320.866 197.967L322.966 248.39C322.775 248.963 322.584 249.345 322.203 249.345Z" fill="url(#paint61_linear)"/>
<path d="M394.179 256.03C393.606 256.03 393.416 255.648 393.416 255.266L393.797 197.775C393.797 197.393 394.179 197.011 394.561 197.011H394.752C395.134 197.011 395.516 197.393 395.516 197.775L394.752 255.266C394.752 255.648 394.561 256.03 394.179 256.03Z" fill="url(#paint62_linear)"/>
<path d="M394.752 295.567L395.134 248.199C395.134 247.626 395.516 247.244 395.897 247.244C396.279 247.244 396.661 247.626 396.661 248.199L396.088 295.567H394.752Z" fill="url(#paint63_linear)"/>
<path opacity="0.9" d="M385.572 256.782C385.572 258.429 384.201 259.528 382.831 259.528C381.187 259.528 380.091 258.155 380.091 256.782C380.091 255.409 381.461 254.035 382.831 254.035C384.201 254.035 385.572 255.134 385.572 256.782Z" fill="#14D999"/>
<path opacity="0.3" d="M348.306 233.988C348.306 235.087 347.484 235.636 346.662 235.636C345.566 235.636 345.018 234.812 345.018 233.988C345.018 232.89 345.84 232.34 346.662 232.34C347.484 232.34 348.306 233.164 348.306 233.988Z" fill="#14D999"/>
<path opacity="0.2" d="M360.637 213.941C360.637 215.039 359.815 215.863 358.719 215.863C357.623 215.863 356.801 215.039 356.801 213.941C356.801 212.842 357.623 212.019 358.719 212.019C359.815 212.019 360.637 212.842 360.637 213.941Z" fill="#14D999"/>
<path opacity="0.2" d="M412.973 207.35C412.973 207.899 412.425 208.448 411.877 208.448C411.329 208.448 410.781 207.899 410.781 207.35C410.781 206.801 411.329 206.251 411.877 206.251C412.425 206.251 412.973 206.801 412.973 207.35Z" fill="#14D999"/>
<path opacity="0.2" d="M409.958 201.308C409.958 202.682 408.862 203.78 407.492 203.78C406.122 203.78 405.026 202.682 405.026 201.308C405.026 199.935 406.122 198.837 407.492 198.837C408.862 199.112 409.958 199.935 409.958 201.308Z" fill="#14D999"/>
<ellipse opacity="0.2" cx="354.125" cy="210.418" rx="1.16067" ry="1.14556" fill="#14D999"/>
<path opacity="0.3" d="M353.786 266.393C353.786 267.492 352.964 268.041 352.142 268.041C351.046 268.041 350.498 267.217 350.498 266.393C350.498 265.569 351.32 264.746 352.142 264.746C352.964 264.746 353.786 265.569 353.786 266.393Z" fill="#14D999"/>
<path opacity="0.2" d="M366.117 246.346C366.117 247.445 365.295 248.269 364.199 248.269C363.103 248.269 362.281 247.445 362.281 246.346C362.281 245.248 363.103 244.424 364.199 244.424C365.295 244.698 366.117 245.522 366.117 246.346Z" fill="#14D999"/>
<ellipse opacity="0.2" cx="359.605" cy="242.823" rx="1.16067" ry="1.14556" fill="#14D999"/>
<path opacity="0.9" d="M376.255 228.221C376.529 229.594 377.899 230.418 379.269 230.143C380.639 229.869 381.461 228.496 381.187 227.122C380.913 225.749 379.543 224.925 378.173 225.2C376.529 225.475 375.707 226.848 376.255 228.221Z" fill="#14D999"/>
<path opacity="0.3" d="M403.108 200.484C403.382 201.308 404.204 201.858 405.026 201.583C405.848 201.308 406.396 200.484 406.122 199.661C405.848 198.837 405.026 198.288 404.204 198.562C403.382 198.562 403.108 199.661 403.108 200.484Z" fill="#14D999"/>
<path opacity="0.2" d="M388.038 185.93C388.312 186.753 389.134 187.303 389.956 187.028C390.778 186.753 391.326 185.93 391.052 185.106C390.778 184.282 389.956 183.733 389.134 184.007C388.312 184.007 388.038 185.106 388.038 185.93Z" fill="#14D999"/>
<path opacity="0.2" d="M341.73 191.697C342.004 192.246 342.552 192.52 343.1 192.52C343.648 192.246 343.922 191.697 343.922 191.147C343.648 190.598 343.1 190.323 342.552 190.323C342.004 190.598 341.456 191.147 341.73 191.697Z" fill="#14D999"/>
<path opacity="0.2" d="M342.826 185.93C343.1 187.028 344.196 187.852 345.292 187.577C346.388 187.303 347.21 186.204 346.936 185.106C346.662 184.007 345.566 183.183 344.47 183.458C343.374 183.458 342.552 184.831 342.826 185.93Z" fill="#14D999"/>
<path opacity="0.2" d="M392.148 181.536C392.422 182.085 392.97 182.36 393.518 182.36C394.066 182.085 394.34 181.536 394.34 180.986C394.066 180.437 393.518 180.163 392.97 180.163C392.422 180.437 391.874 180.986 392.148 181.536Z" fill="#14D999"/>
<path opacity="0.2" d="M404.478 267.492C403.93 267.766 403.382 267.766 402.834 267.492C402.56 266.942 402.56 266.393 402.834 265.844C403.382 265.569 403.93 265.569 404.478 265.844C405.026 266.393 405.026 267.217 404.478 267.492Z" fill="#14D999"/>
<path opacity="0.2" d="M407.218 261.45C406.122 262.274 404.752 262.274 403.93 261.176C403.108 260.077 403.108 258.704 404.204 257.88C405.3 257.056 406.67 257.056 407.492 258.155C408.314 258.979 408.04 260.626 407.218 261.45Z" fill="#14D999"/>
<path opacity="0.3" d="M403.382 255.683C402.834 256.507 403.108 257.331 403.656 257.88C404.478 258.429 405.3 258.155 405.848 257.605C406.396 256.782 406.122 255.958 405.574 255.408C405.026 254.859 403.93 254.859 403.382 255.683Z" fill="#14D999"/>
<path opacity="0.2" d="M404.752 234.537C404.204 235.361 404.478 236.185 405.026 236.734C405.848 237.284 406.67 237.009 407.218 236.46C407.766 235.636 407.492 234.812 406.944 234.263C406.396 233.714 405.3 233.988 404.752 234.537Z" fill="#14D999"/>
<path opacity="0.2" d="M410.78 234.812C410.506 235.361 410.506 235.91 411.054 236.185C411.602 236.46 412.15 236.46 412.425 235.91C412.699 235.361 412.699 234.812 412.15 234.537C411.602 234.263 411.054 234.537 410.78 234.812Z" fill="#14D999"/>
<path d="M369.131 285.891C369.405 287.264 370.775 288.088 372.145 287.814C373.515 287.539 374.337 286.166 374.063 284.793C373.789 283.42 372.419 282.596 371.049 282.87C369.679 283.145 368.857 284.518 369.131 285.891Z" fill="#14D999"/>
<path d="M376.529 272.16C376.803 273.259 377.625 273.808 378.721 273.533C379.817 273.259 380.365 272.435 380.091 271.336C379.817 270.238 378.995 269.689 377.899 269.963C376.803 270.238 376.255 271.062 376.529 272.16Z" fill="#14D999"/>
<path opacity="0.9" d="M385.572 222.681C385.572 224.329 384.201 225.427 382.831 225.427C381.187 225.427 380.091 224.054 380.091 222.681C380.091 221.308 381.461 219.935 382.831 219.935C384.201 219.935 385.572 221.308 385.572 222.681Z" fill="#14D999"/>
<path opacity="0.3" d="M348.306 199.888C348.306 200.986 347.484 201.535 346.662 201.535C345.566 201.535 345.018 200.712 345.018 199.888C345.018 198.789 345.84 198.24 346.662 198.24C347.484 198.24 348.306 199.064 348.306 199.888Z" fill="#14D999"/>
<path opacity="0.2" d="M360.637 179.841C360.637 180.939 359.815 181.763 358.719 181.763C357.623 181.763 356.801 180.939 356.801 179.841C356.801 178.742 357.623 177.918 358.719 177.918C359.815 177.918 360.637 178.742 360.637 179.841Z" fill="#14D999"/>
<path opacity="0.2" d="M412.973 173.25C412.973 173.799 412.425 174.348 411.877 174.348C411.329 174.348 410.781 173.799 410.781 173.25C410.781 172.7 411.329 172.151 411.877 172.151C412.425 172.151 412.973 172.7 412.973 173.25Z" fill="#14D999"/>
<ellipse opacity="0.2" cx="407.766" cy="167.208" rx="2.46609" ry="2.47158" fill="#14D999"/>
<ellipse opacity="0.2" cx="354.125" cy="176.318" rx="1.16067" ry="1.14556" fill="#14D999"/>
<path opacity="0.3" d="M353.786 232.293C353.786 233.391 352.964 233.941 352.142 233.941C351.046 233.941 350.498 233.117 350.498 232.293C350.498 231.195 351.32 230.645 352.142 230.645C352.964 230.645 353.786 231.469 353.786 232.293Z" fill="#14D999"/>
<path opacity="0.2" d="M366.117 212.246C366.117 213.344 365.295 214.168 364.199 214.168C363.103 214.168 362.281 213.344 362.281 212.246C362.281 211.147 363.103 210.323 364.199 210.323C365.295 210.598 366.117 211.422 366.117 212.246Z" fill="#14D999"/>
<ellipse opacity="0.2" cx="359.605" cy="208.723" rx="1.16067" ry="1.14556" fill="#14D999"/>
<path opacity="0.9" d="M376.255 194.121C376.529 195.494 377.899 196.318 379.269 196.043C380.639 195.769 381.461 194.395 381.187 193.022C380.913 191.649 379.543 190.825 378.173 191.1C376.529 191.375 375.707 192.748 376.255 194.121Z" fill="#14D999"/>
<path opacity="0.3" d="M403.108 166.384C403.382 167.208 404.204 167.757 405.026 167.483C405.848 167.208 406.396 166.384 406.122 165.56C405.848 164.736 405.026 164.187 404.204 164.462C403.382 164.736 403.108 165.56 403.108 166.384Z" fill="#14D999"/>
<path opacity="0.2" d="M388.038 151.829C388.312 152.653 389.134 153.202 389.956 152.928C390.778 152.653 391.326 151.829 391.052 151.005C390.778 150.182 389.956 149.632 389.134 149.907C388.312 149.907 388.038 151.005 388.038 151.829Z" fill="#14D999"/>
<path opacity="0.2" d="M341.73 157.596C342.004 158.146 342.552 158.42 343.1 158.42C343.648 158.146 343.922 157.596 343.922 157.047C343.648 156.498 343.1 156.223 342.552 156.223C342.004 156.498 341.456 157.047 341.73 157.596Z" fill="#14D999"/>
<path opacity="0.2" d="M342.826 151.829C343.1 152.928 344.196 153.752 345.292 153.477C346.388 153.203 347.21 152.104 346.936 151.006C346.662 149.907 345.566 149.083 344.47 149.358C343.374 149.633 342.552 150.731 342.826 151.829Z" fill="#14D999"/>
<path opacity="0.2" d="M392.148 147.435C392.422 147.985 392.97 148.259 393.518 148.259C394.066 147.985 394.34 147.435 394.34 146.886C394.066 146.337 393.518 146.062 392.97 146.062C392.422 146.062 391.874 146.886 392.148 147.435Z" fill="#14D999"/>
<path opacity="0.2" d="M404.478 233.392C403.93 233.666 403.382 233.666 402.834 233.392C402.56 232.842 402.56 232.293 402.834 231.744C403.382 231.469 403.93 231.469 404.478 231.744C405.026 232.293 405.026 233.117 404.478 233.392Z" fill="#14D999"/>
<path opacity="0.2" d="M407.218 227.35C406.122 228.174 404.752 228.174 403.93 227.075C403.108 225.977 403.108 224.604 404.204 223.78C405.3 222.956 406.67 222.956 407.492 224.055C408.314 225.153 408.04 226.526 407.218 227.35Z" fill="#14D999"/>
<path opacity="0.3" d="M403.382 221.583C402.834 222.407 403.108 223.23 403.656 223.78C404.478 224.329 405.3 224.054 405.848 223.505C406.396 222.681 406.122 221.857 405.574 221.308C405.026 220.759 403.93 220.759 403.382 221.583Z" fill="#14D999"/>
<path opacity="0.2" d="M404.752 200.712C404.204 201.535 404.478 202.359 405.026 202.908C405.848 203.458 406.67 203.183 407.218 202.634C407.766 201.81 407.492 200.986 406.944 200.437C406.396 199.613 405.3 199.888 404.752 200.712Z" fill="#14D999"/>
<path opacity="0.2" d="M410.78 200.712C410.506 201.261 410.506 201.81 411.054 202.085C411.602 202.359 412.15 202.359 412.425 201.81C412.699 201.261 412.699 200.712 412.15 200.437C411.602 200.162 411.054 200.437 410.78 200.712Z" fill="#14D999"/>
<path d="M369.131 251.791C369.405 253.164 370.775 253.988 372.145 253.713C373.515 253.439 374.337 252.066 374.063 250.692C373.789 249.319 372.419 248.496 371.049 248.77C369.679 249.045 368.857 250.418 369.131 251.791Z" fill="#14D999"/>
<path d="M376.529 238.06C376.803 239.158 377.625 239.708 378.721 239.433C379.817 239.158 380.365 238.335 380.091 237.236C379.817 236.138 378.995 235.588 377.899 235.863C376.803 236.138 376.255 237.236 376.529 238.06Z" fill="#14D999"/>
<path opacity="0.4" d="M348.001 279.985C348.001 279.985 354.226 295.912 382.904 295.75C407.564 295.612 414.562 281.894 414.562 281.894L447.887 163.982H315.923L348.001 279.985Z" fill="url(#paint64_linear)"/>
<path d="M399.675 241.366L393.884 243.968L393.015 241.944C390.698 241.51 388.092 240.353 385.631 238.473C375.062 230.954 367.533 214.469 368.836 201.599C369.126 198.418 369.994 195.815 371.153 193.79L370.284 191.766L376.075 189.163C379.984 187.428 384.907 188.151 390.264 191.911C400.833 199.43 408.362 215.915 407.059 228.785C406.335 235.292 403.584 239.63 399.675 241.366Z" fill="url(#paint65_linear)"/>
<path d="M366.613 225.554C359.988 210.963 361.288 196.067 369.515 192.283C377.742 188.499 389.782 197.26 396.406 211.851C403.031 226.442 401.731 241.338 393.504 245.122C385.277 248.906 373.237 240.145 366.613 225.554Z" fill="#BCD5FF"/>
<path d="M366.613 225.554C359.988 210.963 361.288 196.067 369.515 192.283C377.742 188.499 389.782 197.26 396.406 211.851C403.031 226.442 401.731 241.338 393.504 245.122C385.277 248.906 373.237 240.145 366.613 225.554Z" fill="url(#paint66_linear)"/>
<path opacity="0.5" d="M370.053 223.851C364.891 212.478 365.766 200.933 372.007 198.064C378.247 195.194 387.491 202.087 392.653 213.459C397.814 224.831 396.939 236.377 390.698 239.246C384.458 242.116 375.214 235.223 370.053 223.851Z" stroke="white" stroke-width="1.58388"/>
<path opacity="0.5" d="M400.806 232.231C401.976 219.358 394.367 202.87 383.831 195.348C377.246 190.72 371.246 190.575 367.149 194.191C371.246 190.286 377.539 190.286 384.27 195.059C394.952 202.58 402.562 219.069 401.245 231.942C400.806 236.86 399.05 240.62 396.416 242.79C398.757 240.476 400.367 236.86 400.806 232.231Z" fill="white"/>
<g opacity="0.8">
<path d="M379.803 217.776L379.929 214.731L379.061 214.2L378.762 221.379L379.063 221.581L379.63 221.91L379.803 217.776Z" fill="#DFFFEE"/>
<path d="M383.065 217.812C382.717 217.005 382.248 216.379 381.694 215.938L381.648 217.065C381.979 217.345 382.23 217.733 382.439 218.195C382.755 218.85 382.88 219.534 382.849 220.285C382.819 220.998 382.647 221.479 382.292 221.762C382.056 221.939 381.787 222.001 381.449 221.871L381.403 222.998C381.964 223.251 382.424 223.199 382.854 222.919C383.366 222.53 383.661 221.83 383.703 220.816C383.707 219.8 383.519 218.812 383.065 217.812Z" fill="#DFFFEE"/>
<path d="M389.717 222.772L390.641 223.344C390.221 216.972 386.79 210.039 382.299 206.736L382.248 207.973C386.221 210.95 389.307 217.077 389.717 222.772Z" fill="#DFFFEE"/>
<path d="M381.239 231.523L381.188 232.757C385.737 235.192 389.615 232.798 390.455 227.107L389.535 226.499C388.723 231.518 385.31 233.635 381.239 231.523Z" fill="#DFFFEE"/>
<path d="M387.653 221.439L387.876 221.563C387.407 217.293 385.128 212.784 382.152 210.458L382.101 211.696C384.561 213.658 386.418 217.357 386.915 220.952L387.653 221.439Z" fill="#DFFFEE"/>
<path d="M386.749 224.741C386.098 227.706 383.929 228.985 381.408 227.775L381.358 229.008C384.395 230.507 386.954 228.947 387.671 225.311L386.749 224.741Z" fill="#DFFFEE"/>
<path d="M371.814 215.158L370.893 214.588C371.223 221.038 374.666 228.124 379.213 231.499L379.266 230.259C375.235 227.21 372.173 220.933 371.814 215.158Z" fill="#DFFFEE"/>
<path d="M371.13 210.886L372.048 211.493C372.934 206.65 376.304 204.629 380.293 206.695L380.346 205.458C375.842 203.067 372.045 205.368 371.13 210.886Z" fill="#DFFFEE"/>
<path d="M373.914 212.675L374.832 213.282C375.557 210.461 377.645 209.281 380.124 210.45L380.179 209.175C377.183 207.719 374.704 209.218 373.914 212.675Z" fill="#DFFFEE"/>
<path d="M374.61 216.941L373.653 216.331C374.033 220.714 376.331 225.376 379.37 227.738L379.422 226.499C376.899 224.461 374.983 220.608 374.61 216.941Z" fill="#DFFFEE"/>
</g>
<path opacity="0.3" d="M175.683 323.438L123.412 293.287L175.683 263.135L227.955 293.287L175.683 323.438ZM124.992 293.287L175.683 322.648L226.375 293.418L175.683 264.188L124.992 293.287Z" fill="#0087D8"/>
<path opacity="0.7" d="M223.873 282.095V272.352L175.683 298.948L127.362 272.352V282.095L175.683 309.877L223.873 282.095Z" fill="#6EB4FF"/>
<path d="M175.683 300.133L127.362 272.352L175.683 244.438L223.873 272.352L175.683 300.133Z" fill="url(#paint67_linear)"/>
<path opacity="0.7" d="M175.683 299.343L128.152 271.957L127.362 272.352L175.683 300.133L223.873 272.352L223.215 271.957L175.683 299.343Z" fill="#6EB4FF"/>
<path d="M175.683 289.6L145.795 272.352L175.683 255.104L205.572 272.352L175.683 289.6Z" fill="url(#paint68_linear)"/>
<path opacity="0.6" d="M175.683 289.6L145.795 272.352L175.683 255.104L205.572 272.352L175.683 289.6Z" fill="url(#paint69_linear)"/>
<path opacity="0.6" d="M175.683 231.009L205.572 248.257V272.352L175.683 255.104V231.009Z" fill="url(#paint70_linear)"/>
<path opacity="0.6" d="M175.683 255.104L145.795 272.352V248.257L175.683 231.009V255.104Z" fill="url(#paint71_linear)"/>
<path opacity="0.6" d="M175.683 265.505L145.795 248.257L175.683 231.009L205.572 248.257L175.683 265.505Z" fill="url(#paint72_linear)"/>
<path d="M175.683 264.583L146.585 247.862L145.795 248.257L175.683 265.505L205.572 248.257L204.782 247.862L175.683 264.583Z" fill="url(#paint73_linear)"/>
<g opacity="0.6">
<path opacity="0.6" d="M52.0417 254.424L34.135 244.023L52.0417 233.753L69.9483 244.023L52.0417 254.424Z" fill="url(#paint74_linear)"/>
<path opacity="0.7" d="M52.0417 255.346C51.91 255.346 51.6467 255.346 51.515 255.215L33.6083 244.813C33.345 244.681 33.0817 244.286 33.0817 244.023C33.0817 243.628 33.2133 243.364 33.6083 243.233L51.515 232.831C51.7783 232.7 52.1733 232.7 52.4367 232.831L70.3433 243.233C70.6067 243.364 70.87 243.76 70.87 244.023C70.87 244.418 70.7383 244.681 70.3433 244.813L52.4367 255.215C52.4367 255.346 52.1733 255.346 52.0417 255.346ZM36.11 244.023L52.1733 253.24L68.2367 244.023L52.1733 234.806L36.11 244.023Z" fill="#6EB4FF"/>
</g>
<defs>
<linearGradient id="paint0_linear" x1="197.402" y1="0" x2="197.402" y2="224.887" gradientUnits="userSpaceOnUse">
<stop stop-color="#03B379"/>
<stop offset="1" stop-color="#14D999"/>
</linearGradient>
<linearGradient id="paint1_linear" x1="207.803" y1="5.13525" x2="207.803" y2="230.022" gradientUnits="userSpaceOnUse">
<stop stop-color="#03B379"/>
<stop offset="1" stop-color="#14D999"/>
</linearGradient>
<linearGradient id="paint2_linear" x1="218.139" y1="10.1384" x2="218.139" y2="235.157" gradientUnits="userSpaceOnUse">
<stop stop-color="#03B379"/>
<stop offset="1" stop-color="#14D999"/>
</linearGradient>
<linearGradient id="paint3_linear" x1="52.421" y1="272.446" x2="52.421" y2="295.828" gradientUnits="userSpaceOnUse">
<stop stop-color="#03B379"/>
<stop offset="1" stop-color="#14D999"/>
</linearGradient>
<linearGradient id="paint4_linear" x1="52.421" y1="260.754" x2="52.421" y2="284.137" gradientUnits="userSpaceOnUse">
<stop stop-color="#03B379"/>
<stop offset="1" stop-color="#14D999"/>
</linearGradient>
<linearGradient id="paint5_linear" x1="52.421" y1="249.211" x2="52.421" y2="272.446" gradientUnits="userSpaceOnUse">
<stop stop-color="#03B379"/>
<stop offset="1" stop-color="#14D999"/>
</linearGradient>
<linearGradient id="paint6_linear" x1="381.284" y1="174.58" x2="317.862" y2="53.1624" gradientUnits="userSpaceOnUse">
<stop stop-color="#3B9AFF"/>
<stop offset="1" stop-color="#0070EA"/>
</linearGradient>
<linearGradient id="paint7_linear" x1="216.331" y1="10.9616" x2="154.251" y2="24.5921" gradientUnits="userSpaceOnUse">
<stop stop-color="#3B9AFF"/>
<stop offset="1" stop-color="#0070EA"/>
</linearGradient>
<linearGradient id="paint8_linear" x1="242.348" y1="-11.3504" x2="235.088" y2="-11.1867" gradientUnits="userSpaceOnUse">
<stop stop-color="#3B9AFF"/>
<stop offset="1" stop-color="#0070EA"/>
</linearGradient>
<linearGradient id="paint9_linear" x1="296.391" y1="-0.841347" x2="213.177" y2="24.3904" gradientUnits="userSpaceOnUse">
<stop stop-color="#3B9AFF"/>
<stop offset="1" stop-color="#0070EA"/>
</linearGradient>
<linearGradient id="paint10_linear" x1="270.971" y1="-9.70053" x2="208.954" y2="72.3852" gradientUnits="userSpaceOnUse">
<stop stop-color="#3B9AFF"/>
<stop offset="1" stop-color="#0070EA"/>
</linearGradient>
<linearGradient id="paint11_linear" x1="204.971" y1="172.275" x2="178.398" y2="207.519" gradientUnits="userSpaceOnUse">
<stop stop-color="#3B9AFF"/>
<stop offset="1" stop-color="#0070EA"/>
</linearGradient>
<linearGradient id="paint12_linear" x1="207.025" y1="181.065" x2="194.808" y2="202.882" gradientUnits="userSpaceOnUse">
<stop stop-color="#3B9AFF"/>
<stop offset="1" stop-color="#0070EA"/>
</linearGradient>
<linearGradient id="paint13_linear" x1="213.268" y1="128.902" x2="213.268" y2="204.215" gradientUnits="userSpaceOnUse">
<stop stop-color="#03B379"/>
<stop offset="1" stop-color="#14D999"/>
</linearGradient>
<linearGradient id="paint14_linear" x1="214.321" y1="132.588" x2="214.321" y2="204.215" gradientUnits="userSpaceOnUse">
<stop stop-color="#03B379"/>
<stop offset="1" stop-color="#14D999"/>
</linearGradient>
<linearGradient id="paint15_linear" x1="235.162" y1="187.499" x2="170.34" y2="187.499" gradientUnits="userSpaceOnUse">
<stop stop-color="#C0BFF6"/>
<stop offset="0.2938" stop-color="#C5C4F7"/>
<stop offset="0.6399" stop-color="#D3D2F9"/>
<stop offset="1" stop-color="#E9E9FD"/>
</linearGradient>
<linearGradient id="paint16_linear" x1="239.429" y1="182.741" x2="222.836" y2="182.741" gradientUnits="userSpaceOnUse">
<stop stop-color="#C0BFF6"/>
<stop offset="0.2938" stop-color="#C5C4F7"/>
<stop offset="0.6399" stop-color="#D3D2F9"/>
<stop offset="1" stop-color="#E9E9FD"/>
</linearGradient>
<linearGradient id="paint17_linear" x1="249.41" y1="102.614" x2="249.41" y2="107.308" gradientUnits="userSpaceOnUse">
<stop stop-color="#03B379"/>
<stop offset="1" stop-color="#14D999"/>
</linearGradient>
<linearGradient id="paint18_linear" x1="250.2" y1="103.281" x2="250.2" y2="107.409" gradientUnits="userSpaceOnUse">
<stop stop-color="#03B379"/>
<stop offset="1" stop-color="#14D999"/>
</linearGradient>
<linearGradient id="paint19_linear" x1="250.2" y1="104.153" x2="250.2" y2="106.514" gradientUnits="userSpaceOnUse">
<stop stop-color="#03B379"/>
<stop offset="1" stop-color="#14D999"/>
</linearGradient>
<linearGradient id="paint20_linear" x1="330.122" y1="56.2668" x2="330.122" y2="60.9617" gradientUnits="userSpaceOnUse">
<stop stop-color="#03B379"/>
<stop offset="1" stop-color="#14D999"/>
</linearGradient>
<linearGradient id="paint21_linear" x1="330.912" y1="56.9111" x2="330.912" y2="61.0623" gradientUnits="userSpaceOnUse">
<stop stop-color="#03B379"/>
<stop offset="1" stop-color="#14D999"/>
</linearGradient>
<linearGradient id="paint22_linear" x1="330.912" y1="57.8062" x2="330.912" y2="60.1671" gradientUnits="userSpaceOnUse">
<stop stop-color="#03B379"/>
<stop offset="1" stop-color="#14D999"/>
</linearGradient>
<linearGradient id="paint23_linear" x1="249.41" y1="259.429" x2="249.41" y2="264.124" gradientUnits="userSpaceOnUse">
<stop stop-color="#03B379"/>
<stop offset="1" stop-color="#14D999"/>
</linearGradient>
<linearGradient id="paint24_linear" x1="250.398" y1="260.174" x2="250.398" y2="264.21" gradientUnits="userSpaceOnUse">
<stop stop-color="#03B379"/>
<stop offset="1" stop-color="#14D999"/>
</linearGradient>
<linearGradient id="paint25_linear" x1="250.002" y1="260.087" x2="250.002" y2="264.124" gradientUnits="userSpaceOnUse">
<stop stop-color="#03B379"/>
<stop offset="1" stop-color="#14D999"/>
</linearGradient>
<linearGradient id="paint26_linear" x1="250.002" y1="260.087" x2="250.002" y2="264.124" gradientUnits="userSpaceOnUse">
<stop stop-color="#03B379"/>
<stop offset="1" stop-color="#14D999"/>
</linearGradient>
<linearGradient id="paint27_linear" x1="250.397" y1="260.832" x2="250.397" y2="263.345" gradientUnits="userSpaceOnUse">
<stop stop-color="#03B379"/>
<stop offset="1" stop-color="#14D999"/>
</linearGradient>
<linearGradient id="paint28_linear" x1="249.937" y1="260.963" x2="249.937" y2="263.07" gradientUnits="userSpaceOnUse">
<stop stop-color="#03B379"/>
<stop offset="1" stop-color="#14D999"/>
</linearGradient>
<linearGradient id="paint29_linear" x1="330.056" y1="213.082" x2="330.056" y2="217.777" gradientUnits="userSpaceOnUse">
<stop stop-color="#03B379"/>
<stop offset="1" stop-color="#14D999"/>
</linearGradient>
<linearGradient id="paint30_linear" x1="330.978" y1="213.827" x2="330.978" y2="217.863" gradientUnits="userSpaceOnUse">
<stop stop-color="#03B379"/>
<stop offset="1" stop-color="#14D999"/>
</linearGradient>
<linearGradient id="paint31_linear" x1="330.714" y1="213.74" x2="330.714" y2="217.777" gradientUnits="userSpaceOnUse">
<stop stop-color="#03B379"/>
<stop offset="1" stop-color="#14D999"/>
</linearGradient>
<linearGradient id="paint32_linear" x1="330.714" y1="213.74" x2="330.714" y2="217.777" gradientUnits="userSpaceOnUse">
<stop stop-color="#03B379"/>
<stop offset="1" stop-color="#14D999"/>
</linearGradient>
<linearGradient id="paint33_linear" x1="330.978" y1="214.485" x2="330.978" y2="216.999" gradientUnits="userSpaceOnUse">
<stop stop-color="#03B379"/>
<stop offset="1" stop-color="#14D999"/>
</linearGradient>
<linearGradient id="paint34_linear" x1="330.648" y1="214.749" x2="330.648" y2="216.855" gradientUnits="userSpaceOnUse">
<stop stop-color="#03B379"/>
<stop offset="1" stop-color="#14D999"/>
</linearGradient>
<linearGradient id="paint35_linear" x1="104.347" y1="122.626" x2="64.8904" y2="174.878" gradientUnits="userSpaceOnUse">
<stop stop-color="#3B9AFF"/>
<stop offset="1" stop-color="#0070EA"/>
</linearGradient>
<linearGradient id="paint36_linear" x1="96.7388" y1="149.527" x2="96.7388" y2="184.024" gradientUnits="userSpaceOnUse">
<stop stop-color="#03B379"/>
<stop offset="1" stop-color="#14D999"/>
</linearGradient>
<linearGradient id="paint37_linear" x1="111.683" y1="125.432" x2="111.683" y2="166.776" gradientUnits="userSpaceOnUse">
<stop stop-color="#03B379"/>
<stop offset="1" stop-color="#14D999"/>
</linearGradient>
<linearGradient id="paint38_linear" x1="66.9207" y1="146.091" x2="96.7596" y2="146.091" gradientUnits="userSpaceOnUse">
<stop stop-color="#42E8E0"/>
<stop offset="0.1507" stop-color="#43E3E0"/>
<stop offset="0.3285" stop-color="#45D5DF"/>
<stop offset="0.5199" stop-color="#49BDDD"/>
<stop offset="0.7209" stop-color="#4E9CDB"/>
<stop offset="0.9274" stop-color="#5472D8"/>
<stop offset="1" stop-color="#5761D7"/>
</linearGradient>
<linearGradient id="paint39_linear" x1="96.7388" y1="125.432" x2="96.7388" y2="159.929" gradientUnits="userSpaceOnUse">
<stop stop-color="#03B379"/>
<stop offset="1" stop-color="#14D999"/>
</linearGradient>
<linearGradient id="paint40_linear" x1="96.7388" y1="142.286" x2="96.7388" y2="159.929" gradientUnits="userSpaceOnUse">
<stop stop-color="#03B379"/>
<stop offset="1" stop-color="#14D999"/>
</linearGradient>
<linearGradient id="paint41_linear" x1="81.8605" y1="142.681" x2="81.8605" y2="184.024" gradientUnits="userSpaceOnUse">
<stop stop-color="#03B379"/>
<stop offset="1" stop-color="#14D999"/>
</linearGradient>
<linearGradient id="paint42_linear" x1="192.157" y1="254.125" x2="260.942" y2="254.125" gradientUnits="userSpaceOnUse">
<stop offset="0.2473" stop-color="#5761D7"/>
<stop offset="0.4363" stop-color="#6C74DF"/>
<stop offset="0.8245" stop-color="#A2A6F5"/>
<stop offset="1" stop-color="#BCBEFF"/>
</linearGradient>
<linearGradient id="paint43_linear" x1="192.157" y1="235.321" x2="288.688" y2="235.321" gradientUnits="userSpaceOnUse">
<stop stop-color="#C0BFF6"/>
<stop offset="0.2938" stop-color="#C5C4F7"/>
<stop offset="0.6399" stop-color="#D3D2F9"/>
<stop offset="1" stop-color="#E9E9FD"/>
</linearGradient>
<linearGradient id="paint44_linear" x1="210.584" y1="235.322" x2="270.261" y2="235.322" gradientUnits="userSpaceOnUse">
<stop stop-color="#42E8E0"/>
<stop offset="0.1507" stop-color="#43E3E0"/>
<stop offset="0.3285" stop-color="#45D5DF"/>
<stop offset="0.5199" stop-color="#49BDDD"/>
<stop offset="0.7209" stop-color="#4E9CDB"/>
<stop offset="0.9274" stop-color="#5472D8"/>
<stop offset="1" stop-color="#5761D7"/>
</linearGradient>
<linearGradient id="paint45_linear" x1="240.422" y1="214.658" x2="270.261" y2="214.658" gradientUnits="userSpaceOnUse">
<stop stop-color="#42E8E0"/>
<stop offset="0.1507" stop-color="#43E3E0"/>
<stop offset="0.3285" stop-color="#45D5DF"/>
<stop offset="0.5199" stop-color="#49BDDD"/>
<stop offset="0.7209" stop-color="#4E9CDB"/>
<stop offset="0.9274" stop-color="#5472D8"/>
<stop offset="1" stop-color="#5761D7"/>
</linearGradient>
<linearGradient id="paint46_linear" x1="240.422" y1="231.885" x2="270.261" y2="231.885" gradientUnits="userSpaceOnUse">
<stop stop-color="#42E8E0"/>
<stop offset="0.1507" stop-color="#43E3E0"/>
<stop offset="0.3285" stop-color="#45D5DF"/>
<stop offset="0.5199" stop-color="#49BDDD"/>
<stop offset="0.7209" stop-color="#4E9CDB"/>
<stop offset="0.9274" stop-color="#5472D8"/>
<stop offset="1" stop-color="#5761D7"/>
</linearGradient>
<linearGradient id="paint47_linear" x1="372.947" y1="351.501" x2="466.357" y2="281.948" gradientUnits="userSpaceOnUse">
<stop stop-color="#3B99FF"/>
<stop offset="1" stop-color="#047DFF"/>
</linearGradient>
<linearGradient id="paint48_linear" x1="349.769" y1="262.726" x2="349.769" y2="292.706" gradientUnits="userSpaceOnUse">
<stop stop-color="#3B99FF"/>
<stop offset="1" stop-color="#047DFF"/>
</linearGradient>
<linearGradient id="paint49_linear" x1="400.054" y1="298.393" x2="356.925" y2="298.393" gradientUnits="userSpaceOnUse">
<stop stop-color="#6CB3FF"/>
<stop offset="1" stop-color="#0070EA"/>
</linearGradient>
<radialGradient id="paint50_angular" cx="0" cy="0" r="1" gradientUnits="userSpaceOnUse" gradientTransform="translate(378.667 289.81) rotate(42.8613) scale(90.0338 55.8988)">
<stop stop-color="#8DC4FF"/>
<stop offset="1" stop-color="#047DFF"/>
</radialGradient>
<linearGradient id="paint51_linear" x1="390.027" y1="274.501" x2="359.615" y2="326.491" gradientUnits="userSpaceOnUse">
<stop stop-color="#3B9AFF"/>
<stop offset="1" stop-color="#0070EA"/>
</linearGradient>
<linearGradient id="paint52_linear" x1="441.171" y1="225.911" x2="441.171" y2="261.235" gradientUnits="userSpaceOnUse">
<stop stop-color="#29F589"/>
<stop offset="1" stop-color="#21C688" stop-opacity="0.01"/>
</linearGradient>
<linearGradient id="paint53_linear" x1="363.503" y1="264.518" x2="363.503" y2="298.039" gradientUnits="userSpaceOnUse">
<stop stop-color="#29F589"/>
<stop offset="1" stop-color="#22C788" stop-opacity="0.01"/>
</linearGradient>
<linearGradient id="paint54_linear" x1="327.558" y1="236.098" x2="327.558" y2="307.478" gradientUnits="userSpaceOnUse">
<stop stop-color="#42E177"/>
<stop offset="1" stop-color="#22CB88" stop-opacity="0.01"/>
</linearGradient>
<linearGradient id="paint55_linear" x1="431.051" y1="186.395" x2="431.051" y2="251.735" gradientUnits="userSpaceOnUse">
<stop stop-color="#29F589"/>
<stop offset="1" stop-color="#21C688" stop-opacity="0.01"/>
</linearGradient>
<linearGradient id="paint56_linear" x1="367.146" y1="147.326" x2="367.146" y2="224.745" gradientUnits="userSpaceOnUse">
<stop stop-color="#29F589"/>
<stop offset="1" stop-color="#23D088" stop-opacity="0.01"/>
</linearGradient>
<linearGradient id="paint57_linear" x1="337.882" y1="174.747" x2="337.882" y2="240.453" gradientUnits="userSpaceOnUse">
<stop stop-color="#29F589"/>
<stop offset="1" stop-color="#23D088" stop-opacity="0.01"/>
</linearGradient>
<linearGradient id="paint58_linear" x1="341.165" y1="254.95" x2="341.165" y2="280.961" gradientUnits="userSpaceOnUse">
<stop stop-color="#29F589"/>
<stop offset="1" stop-color="#22C788" stop-opacity="0.01"/>
</linearGradient>
<linearGradient id="paint59_linear" x1="351.188" y1="159.268" x2="351.188" y2="188.759" gradientUnits="userSpaceOnUse">
<stop stop-color="#29F589"/>
<stop offset="1" stop-color="#22C788"/>
</linearGradient>
<linearGradient id="paint60_linear" x1="422.314" y1="224.129" x2="422.314" y2="277.573" gradientUnits="userSpaceOnUse">
<stop stop-color="#29F589"/>
<stop offset="1" stop-color="#21C688" stop-opacity="0.01"/>
</linearGradient>
<linearGradient id="paint61_linear" x1="319.195" y1="197.555" x2="319.195" y2="247.522" gradientUnits="userSpaceOnUse">
<stop stop-color="#42E177"/>
<stop offset="1" stop-color="#22CB88" stop-opacity="0.01"/>
</linearGradient>
<linearGradient id="paint62_linear" x1="393.332" y1="197.411" x2="393.332" y2="253.966" gradientUnits="userSpaceOnUse">
<stop stop-color="#29F589"/>
<stop offset="1" stop-color="#21C688" stop-opacity="0.01"/>
</linearGradient>
<linearGradient id="paint63_linear" x1="394.676" y1="247.571" x2="394.676" y2="293.877" gradientUnits="userSpaceOnUse">
<stop stop-color="#29F589"/>
<stop offset="1" stop-color="#21C688" stop-opacity="0.01"/>
</linearGradient>
<linearGradient id="paint64_linear" x1="495.778" y1="402.405" x2="495.778" y2="174.96" gradientUnits="userSpaceOnUse">
<stop stop-color="#01BAEF"/>
<stop offset="1" stop-color="#01B9EF" stop-opacity="0.01"/>
</linearGradient>
<linearGradient id="paint65_linear" x1="387.948" y1="188.268" x2="387.948" y2="243.968" gradientUnits="userSpaceOnUse">
<stop stop-color="#03B379"/>
<stop offset="1" stop-color="#14D999"/>
</linearGradient>
<linearGradient id="paint66_linear" x1="381.51" y1="191.402" x2="381.51" y2="246.003" gradientUnits="userSpaceOnUse">
<stop stop-color="#03B379"/>
<stop offset="1" stop-color="#14D999"/>
</linearGradient>
<linearGradient id="paint67_linear" x1="183.225" y1="228.202" x2="143.769" y2="280.454" gradientUnits="userSpaceOnUse">
<stop stop-color="#3B9AFF"/>
<stop offset="1" stop-color="#0070EA"/>
</linearGradient>
<linearGradient id="paint68_linear" x1="180.395" y1="245.047" x2="155.957" y2="277.411" gradientUnits="userSpaceOnUse">
<stop stop-color="#3B9AFF"/>
<stop offset="1" stop-color="#0070EA"/>
</linearGradient>
<linearGradient id="paint69_linear" x1="175.683" y1="255.104" x2="175.683" y2="289.6" gradientUnits="userSpaceOnUse">
<stop stop-color="#03B379"/>
<stop offset="1" stop-color="#14D999"/>
</linearGradient>
<linearGradient id="paint70_linear" x1="190.627" y1="231.009" x2="190.627" y2="272.352" gradientUnits="userSpaceOnUse">
<stop stop-color="#03B379"/>
<stop offset="1" stop-color="#14D999"/>
</linearGradient>
<linearGradient id="paint71_linear" x1="160.739" y1="231.009" x2="160.739" y2="272.352" gradientUnits="userSpaceOnUse">
<stop stop-color="#03B379"/>
<stop offset="1" stop-color="#14D999"/>
</linearGradient>
<linearGradient id="paint72_linear" x1="175.683" y1="231.009" x2="175.683" y2="265.505" gradientUnits="userSpaceOnUse">
<stop stop-color="#03B379"/>
<stop offset="1" stop-color="#14D999"/>
</linearGradient>
<linearGradient id="paint73_linear" x1="175.683" y1="247.862" x2="175.683" y2="265.505" gradientUnits="userSpaceOnUse">
<stop stop-color="#03B379"/>
<stop offset="1" stop-color="#14D999"/>
</linearGradient>
<linearGradient id="paint74_linear" x1="52.0417" y1="233.753" x2="52.0417" y2="254.424" gradientUnits="userSpaceOnUse">
<stop stop-color="#03B379"/>
<stop offset="1" stop-color="#14D999"/>
</linearGradient>
</defs>
</svg>
