<svg width="68" height="68" viewBox="0 0 68 68" fill="none" xmlns="http://www.w3.org/2000/svg">
<rect x="1" y="1.00006" width="66" height="66" rx="2.38179" fill="#14D999" fill-opacity="0.1" stroke="#14D999" stroke-width="2"/>
<path d="M41.9378 26.8599C41.407 26.8599 40.9768 26.4297 40.9768 25.8989C40.9768 22.0518 37.8469 18.922 33.9998 18.922C33.1409 18.922 32.3027 19.0759 31.5085 19.3796C31.0127 19.5691 30.4572 19.3209 30.2677 18.8251C30.0781 18.3294 30.3263 17.7739 30.8221 17.5843C31.8363 17.1966 32.9055 17 33.9999 17C38.9068 17 42.8988 20.992 42.8988 25.8989C42.8988 26.4297 42.4685 26.8599 41.9378 26.8599Z" fill="url(#paint0_linear)"/>
<path d="M44.275 42.2149C43.7689 42.0538 43.2289 42.3338 43.068 42.8395C41.8371 46.7107 38.2783 49.3116 34.2124 49.3116C29.0896 49.3116 24.9219 45.1439 24.9219 40.0211C24.9219 34.8983 29.0896 30.7306 34.2124 30.7306C38.2925 30.7306 41.9545 33.4585 43.1178 37.3644C43.2693 37.8731 43.8044 38.1627 44.3131 38.0111C44.8217 37.8595 45.1113 37.3243 44.9597 36.8158C44.2846 34.5491 42.8691 32.5106 40.9739 31.076C39.0142 29.5926 36.6762 28.8085 34.2123 28.8085C31.4785 28.8085 28.9706 29.7925 27.0228 31.4241V25.8989C27.0228 24.5067 27.4313 23.1629 28.2041 22.0129C28.5002 21.5724 28.383 20.9753 27.9425 20.6793C27.5021 20.3833 26.905 20.5005 26.609 20.9409C25.6225 22.409 25.101 24.1234 25.101 25.8988V33.4939C23.7793 35.3336 23 37.5879 23 40.021C22.9999 46.2036 28.0298 51.2335 34.2124 51.2335C36.6402 51.2335 38.9507 50.4702 40.894 49.026C42.7988 47.6106 44.1839 45.6727 44.8996 43.422C45.0605 42.9162 44.7807 42.3758 44.275 42.2149Z" fill="url(#paint1_linear)"/>
<path d="M39.9546 39.06H38.9056C38.7755 38.3946 38.5137 37.7758 38.1474 37.2326L38.8902 36.4899C39.2655 36.1146 39.2655 35.5061 38.8902 35.1307C38.5149 34.7554 37.9064 34.7554 37.5311 35.1307L36.7883 35.8735C36.2452 35.5072 35.6263 35.2454 34.9609 35.1153V34.0663C34.9609 33.5355 34.5306 33.1053 33.9998 33.1053C33.4691 33.1053 33.0388 33.5355 33.0388 34.0663V35.1153C32.3734 35.2454 31.7545 35.5072 31.2114 35.8735L30.4686 35.1307C30.0934 34.7554 29.4849 34.7554 29.1095 35.1307C28.7342 35.506 28.7342 36.1145 29.1095 36.4899L29.8523 37.2326C29.486 37.7758 29.2242 38.3946 29.0941 39.06H28.0451C27.5143 39.06 27.0841 39.4903 27.0841 40.0211C27.0841 40.5518 27.5143 40.9821 28.0451 40.9821H29.0941C29.2242 41.6475 29.486 42.2664 29.8523 42.8095L29.1095 43.5523C28.7342 43.9276 28.7342 44.536 29.1095 44.9114C29.2972 45.0991 29.5431 45.1929 29.7891 45.1929C30.035 45.1929 30.281 45.0991 30.4686 44.9114L31.2114 44.1686C31.7545 44.5349 32.3733 44.7967 33.0388 44.9268V45.9758C33.0388 46.5066 33.469 46.9368 33.9998 46.9368C34.5305 46.9368 34.9608 46.5066 34.9608 45.9758V44.9268C35.6262 44.7967 36.2451 44.5349 36.7882 44.1686L37.531 44.9114C37.7187 45.0991 37.9646 45.1929 38.2105 45.1929C38.4564 45.1929 38.7024 45.0991 38.89 44.9114C39.2653 44.5361 39.2653 43.9276 38.89 43.5523L38.1473 42.8095C38.5136 42.2664 38.7754 41.6476 38.9055 40.9821H39.9545C40.4852 40.9821 40.9155 40.5518 40.9155 40.0211C40.9155 39.4903 40.4854 39.06 39.9546 39.06ZM33.9998 43.0984C32.303 43.0984 30.9226 41.718 30.9226 40.0211C30.9226 38.3243 32.303 36.9439 33.9998 36.9439C35.6967 36.9439 37.0771 38.3243 37.0771 40.0211C37.0771 41.718 35.6967 43.0984 33.9998 43.0984Z" fill="url(#paint2_linear)"/>
<defs>
<linearGradient id="paint0_linear" x1="36.5514" y1="17" x2="36.5514" y2="26.8599" gradientUnits="userSpaceOnUse">
<stop stop-color="#03B379"/>
<stop offset="1" stop-color="#14D999"/>
</linearGradient>
<linearGradient id="paint1_linear" x1="34" y1="20.5159" x2="34" y2="51.2335" gradientUnits="userSpaceOnUse">
<stop stop-color="#03B379"/>
<stop offset="1" stop-color="#14D999"/>
</linearGradient>
<linearGradient id="paint2_linear" x1="33.9998" y1="33.1053" x2="33.9998" y2="46.9368" gradientUnits="userSpaceOnUse">
<stop stop-color="#03B379"/>
<stop offset="1" stop-color="#14D999"/>
</linearGradient>
</defs>
</svg>
